<?xml version="1.0" encoding="UTF-8"?>
<svg width="116px" height="56px" viewBox="0 0 116 56" version="1.1" xmlns="http://www.w3.org/2000/svg" xmlns:xlink="http://www.w3.org/1999/xlink">
    <!-- Generator: Sketch 62 (91390) - https://sketch.com -->
    <title>Group 7</title>
    <desc>Created with Sketch.</desc>
    <defs>
        <filter x="-4.1%" y="-3.1%" width="108.3%" height="106.2%" filterUnits="objectBoundingBox" id="filter-1">
            <feOffset dx="2" dy="4" in="SourceAlpha" result="shadowOffsetOuter1"></feOffset>
            <feGaussianBlur stdDeviation="4" in="shadowOffsetOuter1" result="shadowBlurOuter1"></feGaussianBlur>
            <feColorMatrix values="0 0 0 0 0   0 0 0 0 0   0 0 0 0 0  0 0 0 0.15 0" type="matrix" in="shadowBlurOuter1" result="shadowMatrixOuter1"></feColorMatrix>
            <feMerge>
                <feMergeNode in="shadowMatrixOuter1"></feMergeNode>
                <feMergeNode in="SourceGraphic"></feMergeNode>
            </feMerge>
        </filter>
        <polygon id="path-2" points="0.179904308 0.20217724 51.7928256 0.20217724 51.7928256 17.427191 0.179904308 17.427191"></polygon>
        <polygon id="path-4" points="8.87290168e-05 0.0644220624 41.0632862 0.0644220624 41.0632862 40.8888889 8.87290168e-05 40.8888889"></polygon>
    </defs>
    <g id="Page-1" stroke="none" stroke-width="1" fill="none" fill-rule="evenodd">
        <g id="DESKTOP-Copy-4" transform="translate(-632.000000, -1353.000000)">
            <g id="Group-20" filter="url(#filter-1)" transform="translate(225.000000, 732.000000)">
                <g id="Group-8" transform="translate(0.000000, 368.000000)">
                    <rect id="Rectangle" fill="#00A8E0" x="370" y="184" width="185" height="184"></rect>
                    <g id="Group-7" transform="translate(413.068783, 256.425532)">
                        <g id="Group-3" transform="translate(47.962963, 11.682540)">
                            <mask id="mask-3" fill="white">
                                <use xlink:href="#path-2"></use>
                            </mask>
                            <g id="Clip-2"></g>
                            <path d="M20.7015078,17.0565178 C20.9673841,17.0565178 21.1522006,16.8702902 21.1522006,16.6029779 L21.1522006,3.31309895 L25.6317155,3.31309895 C25.8975918,3.31309895 26.0812293,3.12776239 26.0812293,2.86015303 L26.0812293,1.02698434 C26.0812293,0.758483939 25.8975918,0.572553349 25.6317155,0.572553349 L13.7056002,0.572553349 C13.4391343,0.572553349 13.2554969,0.758483939 13.2554969,1.02698434 L13.2554969,2.86015303 C13.2554969,3.12776239 13.4391343,3.31309895 13.7056002,3.31309895 L18.1845256,3.31309895 L18.1845256,16.6026809 C18.1845256,16.8702902 18.3693421,17.0565178 18.6349236,17.0565178 L20.7015078,17.0565178 Z M41.1159163,16.4794202 C41.3812031,16.7681175 41.2181991,17.0565178 40.889833,17.0565178 L38.2920857,17.0565178 C37.9442653,17.0565178 37.7603331,16.973651 37.5351341,16.7054476 L35.9808482,14.9753427 C34.9376816,16.3766534 33.4842047,17.427191 31.0709791,17.427191 C28.0847341,17.427191 25.7313454,15.6142192 25.7313454,12.5035945 C25.7313454,10.1126341 27.0005954,8.83488103 28.9236299,7.76384956 C27.9818618,6.67202712 27.5529815,5.5178318 27.5529815,4.50887619 C27.5529815,1.95307312 29.3324663,0.20217724 32.011863,0.20217724 C34.7528651,0.20217724 36.4306567,1.83040646 36.4306567,4.2406728 C36.4306567,6.30105698 34.9580202,7.45376723 33.4031448,8.31985924 L35.6943385,10.8135864 L36.982748,8.54648071 C37.1463415,8.27916836 37.3305685,8.17580759 37.657166,8.17580759 L39.6412165,8.17580759 C39.9689931,8.17580759 40.1529252,8.40302308 39.9492439,8.75290525 L37.6574608,12.708237 L41.1159163,16.4794202 L41.1159163,16.4794202 Z M32.0531298,2.75649524 C30.9896245,2.75649524 30.3759277,3.43725069 30.3759277,4.34373656 C30.3759277,5.04409492 30.7434973,5.66247748 31.5826879,6.56896336 C33.034691,5.72395932 33.6489773,5.20893753 33.6489773,4.30274867 C33.6489773,3.45715061 33.1172246,2.75649524 32.0531298,2.75649524 L32.0531298,2.75649524 Z M31.1328794,14.830697 C32.4413328,14.830697 33.3212007,14.1930086 34.037475,13.1005921 L30.7243377,9.51504245 C29.4553825,10.2367858 28.6368254,10.9570441 28.6368254,12.3996397 C28.6371202,13.8214444 29.7819801,14.830697 31.1328794,14.830697 L31.1328794,14.830697 Z M15.2430846,16.51922 C15.3462517,16.7880174 15.1820686,17.0565178 14.8958536,17.0565178 L12.768843,17.0565178 C12.4616999,17.0565178 12.2774729,16.9127632 12.1746006,16.6228778 L10.96843,13.1213831 L4.3616097,13.1213831 L3.15337572,16.6228778 C3.05197721,16.9127632 2.86716074,17.0565178 2.56090188,17.0565178 L0.55680751,17.0565178 C0.290636424,17.0565178 0.106114719,16.7880174 0.20869228,16.51922 L5.75171251,0.985699435 C5.85458484,0.696111057 6.03851702,0.573444391 6.34477588,0.573444391 L9.08577802,0.573444391 C9.39292118,0.573444391 9.59748677,0.696408071 9.69976957,0.985699435 L15.2430846,16.51922 L15.2430846,16.51922 Z M10.0269566,10.4215283 L7.67504179,3.62258725 L5.30219877,10.4215283 L10.0269566,10.4215283 Z M44.347699,17.0565178 C44.0812332,17.0565178 43.8978905,16.8702902 43.8978905,16.6029779 L43.8978905,3.31309895 L39.4174913,3.31309895 C39.1510254,3.31309895 38.967388,3.12776239 38.967388,2.86015303 L38.967388,1.02698434 C38.967388,0.758483939 39.1513202,0.572553349 39.4174913,0.572553349 L51.3436066,0.572553349 C51.6094829,0.572553349 51.7931203,0.758483939 51.7931203,1.02698434 L51.7931203,2.86015303 C51.7931203,3.12776239 51.6094829,3.31309895 51.3436066,3.31309895 L46.8635021,3.31309895 L46.8635021,16.6026809 C46.8635021,16.8702902 46.6792752,17.0565178 46.4136936,17.0565178 L44.347699,17.0565178 L44.347699,17.0565178 Z" id="Fill-1" fill="#FFFFFF" mask="url(#mask-3)"></path>
                        </g>
                        <g id="Group-6">
                            <mask id="mask-5" fill="white">
                                <use xlink:href="#path-4"></use>
                            </mask>
                            <g id="Clip-5"></g>
                            <path d="M31.0339496,2.94235268 C27.9568273,1.10794181 24.3837098,0.0642455635 20.5316875,0.0642455635 C16.6524548,0.0642455635 12.9719752,1.14441823 9.88390967,3.02736627 C8.95757874,3.59422158 8.43614788,4.048706 8.43614788,4.63291703 C8.43614788,6.35466283 12.4818953,8.20584109 19.6594812,8.20584109 C26.7625348,8.20584109 32.2717194,6.17816403 32.2717194,4.22608729 C32.2717194,3.76013046 31.8623829,3.434196 31.0339496,2.94235268 M34.0903685,5.20977394 C34.1767314,5.34420719 34.2196171,5.48775955 34.2196171,5.68102574 C34.2196171,7.94903533 27.2407842,11.9611472 16.131024,11.9611472 C7.96795444,11.9611472 6.439745,8.9491952 6.439745,7.03388905 C6.439745,6.3490737 6.70386171,5.64866763 7.28533253,4.93708329 C7.31697922,4.89472358 7.29006475,4.87854452 7.25339009,4.91002014 C6.19278257,5.80398657 5.21853797,6.80944141 4.36378177,7.8952032 C3.95533253,8.40881471 3.70186331,8.86359329 3.70186331,9.13628393 C3.70186331,13.1054478 13.7090176,15.9835549 23.0660839,15.9835549 C33.035972,15.9835549 37.4854365,12.7465669 37.4854365,9.9017004 C37.4854365,8.88477314 37.0876347,8.29144301 36.0696171,7.14067082 C35.4088817,6.39231591 34.7839337,5.78251255 34.122311,5.18271079 C34.0903685,5.15653014 34.0681863,5.17770999 34.0903685,5.20977394 M1.97933733,11.719638 C1.37716307,12.9080633 0.709920863,14.9133839 0.511463629,15.9509026 C0.424509193,16.3956796 0.461479616,16.6092432 0.618234213,16.9410609 C1.87759472,19.5988387 8.24833813,23.8515773 23.1086739,23.8515773 C32.174709,23.8515773 39.2171311,21.635929 40.3581863,17.5935181 C40.5681783,16.8492815 40.579713,16.0635677 40.3096811,15.0048691 C40.0080024,13.8220329 39.4433901,12.4424006 38.9654365,11.4737164 C38.9494652,11.4422408 38.9216635,11.4466532 38.927283,11.4840122 C39.1050368,16.7863303 24.2387858,20.2033471 16.7379305,20.2033471 C8.61301439,20.2033471 1.83470903,16.9837148 1.83470903,12.9183591 C1.83470903,12.5277084 1.91604396,12.1370577 2.01749081,11.7305221 C2.02754676,11.6931632 1.99560432,11.6872799 1.97933733,11.719638 M16.4049009,28.6602871 C5.89672342,28.6602871 0.941799361,23.7927444 0.0429744205,20.4707428 C0.0320311751,20.4227939 8.87290168e-05,20.4333839 8.87290168e-05,20.4766261 C8.87290168e-05,21.5950401 0.112478817,23.0379178 0.306203837,23.9960122 C0.398482014,24.4622631 0.780016787,25.1938507 1.33960112,25.7771792 C3.88405356,28.415248 10.2278825,32.1117212 21.2143094,32.1117212 C36.1831902,32.1117212 39.6054684,27.1521049 40.3046531,25.521256 C40.8041974,24.3551872 41.0632862,22.2472032 41.0632862,20.4766261 C41.0632862,20.0480281 41.0526387,19.7059146 41.0360759,19.3699786 C41.0360759,19.3155581 41.0044293,19.3111456 40.993486,19.3640953 C40.2455004,23.3547332 27.4563957,28.6602871 16.4049009,28.6602871 M21.9253245,37.6420169 C26.9775548,37.6420169 32.5299209,36.2720921 35.8504564,33.5604822 C36.7590416,32.8218347 37.624741,31.8384422 38.3996411,30.5170545 C38.845948,29.7566388 39.2824948,28.8532592 39.6380024,27.965176 C39.6536779,27.9219338 39.6267634,27.900754 39.5942294,27.9495853 C36.5061639,32.4691313 27.5643493,35.2881113 18.3312078,35.2881113 C11.8048929,35.2881113 4.7828785,33.2127795 2.03346203,29.2492048 C2.0062518,29.2124342 1.97933733,29.2283191 1.99590008,29.2703847 C4.55691527,34.6844854 12.3266195,37.6420169 21.9253245,37.6420169 M7.94133573,36.598909 C11.4221751,39.2787492 15.7911918,40.8890066 20.5313917,40.8890066 C25.7187858,40.8890066 30.4480424,38.9734062 34.057243,35.8287859 C34.101016,35.7908387 34.0791295,35.7652464 34.0362438,35.7908387 C32.4166435,36.8665989 27.8006643,39.2146213 20.5316875,39.2146213 C14.2144772,39.2146213 10.2225588,37.8129266 7.96795444,36.561256 C7.92477298,36.5400761 7.90880176,36.5724342 7.94133573,36.598909" id="Fill-4" fill="#FFFFFF" mask="url(#mask-5)"></path>
                        </g>
                    </g>
                </g>
            </g>
        </g>
    </g>
</svg>