<?xml version="1.0" encoding="UTF-8"?>
<svg width="96px" height="97px" viewBox="0 0 96 97" version="1.1" xmlns="http://www.w3.org/2000/svg" xmlns:xlink="http://www.w3.org/1999/xlink">
    <!-- Generator: Sketch 62 (91390) - https://sketch.com -->
    <title>dd_logo_v_white</title>
    <desc>Created with Sketch.</desc>
    <g id="Page-1" stroke="none" stroke-width="1" fill="none" fill-rule="evenodd">
        <g id="DESKTOP-Copy-4" transform="translate(-24.000000, -40.000000)">
            <rect id="Rectangle" fill="#724EEF" x="0" y="0" width="144" height="4197"></rect>
            <g id="dd_logo_v_white" transform="translate(24.000000, 40.000000)" fill="#FFFFFE">
                <path d="M2.67026148,94.5855479 L5.84373827,94.5855479 C8.83277868,94.5855479 10.3274615,92.7539297 10.3274615,89.0879792 C10.3274615,85.9685627 8.83277868,84.4066493 5.84373827,84.4066493 L2.67026148,84.4066493 L2.67026148,94.5855479 Z M6.24676592,97 L0,97 L0,82 L6.24676592,82 C10.7470787,82 13,84.3642429 13,89.090354 C13,94.3623205 10.7470787,97 6.24676592,97 L6.24676592,97 Z" id="Fill-1"></path>
                <polygon id="Fill-3" points="14.8788183 97 12 97 18.4229513 82 21.4377015 82 28 97 24.9842252 97 23.0801545 92.9087208 18.2340812 92.9087208 19.1958503 90.4970373 22.33936 90.4970373 19.8635558 84.8628777"></polygon>
                <polygon id="Fill-5" points="26 82 37 82 37 84.4113443 32.8443645 84.4113443 32.8443645 97 30.1582533 97 30.1582533 84.4113443 26 84.4113443"></polygon>
                <polygon id="Fill-7" points="38.8789412 97 36 97 42.422884 82 45.4381044 82 52 97 48.9817056 97 47.0782367 92.9087208 42.2316149 92.9087208 43.1937667 90.4970373 46.3370691 90.4970373 43.8615007 84.8628777"></polygon>
                <path d="M55.6696109,94.5855479 L58.843413,94.5855479 C61.833104,94.5855479 63.3294132,92.7539297 63.3294132,89.0879792 C63.3294132,85.9685627 61.833104,84.4066493 58.843413,84.4066493 L55.6696109,84.4066493 L55.6696109,94.5855479 Z M59.2467659,97 L53,97 L53,82 L59.2467659,82 C63.7500063,82 66,84.3642429 66,89.090354 C66,94.3623205 63.7500063,97 59.2467659,97 L59.2467659,97 Z" id="Fill-9"></path>
                <path d="M75.5609867,94.6172319 C78.5902738,94.6172319 80.105597,92.8973844 80.105597,89.4563516 C80.105597,86.069503 78.5902738,84.3754097 75.5609867,84.3754097 C72.4508369,84.3754097 70.8964416,86.069503 70.8964416,89.4563516 C70.8964416,92.8973844 72.4508369,94.6172319 75.5609867,94.6172319 M68,89.5209044 C68,84.5061877 70.5213482,82 75.5609867,82 C80.5214614,82 83,84.5061877 83,89.5209044 C83,94.5061877 80.5214614,97 75.5609867,97 C70.7442298,97 68.2255997,94.5061877 68,89.5209044" id="Fill-11"></path>
                <path d="M93.3277639,90.9097619 L93.3277639,94.373127 C92.7109689,94.5386862 92.1592709,94.6196263 91.6742975,94.6196263 C88.4070739,94.6196263 86.7744385,92.8432929 86.7744385,89.2943052 C86.7744385,86.0158981 88.505696,84.3780325 91.966909,84.3780325 C93.4120647,84.3780325 94.7566453,84.6539645 96,85.206163 L96,82.7224402 C94.7566453,82.2414823 93.3446892,82 91.7654334,82 C86.5902137,82 84,84.4298742 84,89.2943052 C84,94.4299857 86.5443203,97 91.6326353,97 C93.3830965,97 94.8380167,96.7381154 96,96.2130084 L96,88.4772119 L91.6834111,88.4772119 L90.7811652,90.9097619 L93.3277639,90.9097619 Z" id="Fill-13"></path>
                <path d="M40.764779,19.9696076 C43.4300668,18.1776626 46.8655908,18.8831169 46.2901422,19.4213186 C45.1940496,20.4489131 46.6533054,20.146622 46.8097957,22.0439948 C46.9260079,23.4418876 46.4624796,24.2130716 46.0639905,24.651052 C45.2326769,24.758432 44.2207722,24.9595255 43.0038453,25.3486968 C42.2828012,25.5790758 41.6558495,25.8361371 41.107473,26.0931984 C40.9625379,25.9994849 40.8063777,25.887224 40.6195137,25.7281063 C38.7366775,24.1229374 38.7994057,21.2890805 40.764779,19.9696076 L40.764779,19.9696076 Z M56.6884953,31.036585 C57.1715024,30.6669373 59.3696302,29.9712448 61.4056552,29.7330564 C62.4733551,29.6074543 63.9963295,29.5374945 64.3215257,29.7154851 C64.9659753,30.0669107 64.9659753,31.153076 64.5245669,32.1569167 C63.8824283,33.6163091 62.9718791,35.2247319 61.9421464,35.3581435 C60.2623514,35.5764829 58.6720267,34.6813238 56.8578614,33.3442796 C56.2104405,32.8675773 55.8129418,31.704619 56.6884953,31.036585 L56.6884953,31.036585 Z M59.7526023,16.8422453 C62.2339975,17.9794976 61.9091315,20.1440188 61.9774722,21.4153334 C61.9962907,21.7801002 61.990348,22.0270743 61.9589839,22.19693 C61.614309,22.0134077 61.0722054,21.8793454 60.2115086,21.9157895 C59.9599355,21.9268529 59.7136448,21.955813 59.4775888,21.9935587 C58.5617572,21.5106739 58.0156918,20.5634518 57.5148567,19.5586349 C57.4689661,19.4665484 57.4336402,19.3832475 57.4006253,19.3022244 C57.3857687,19.2651295 57.3692612,19.2244552 57.3567156,19.191265 C57.3504428,19.1736938 57.3448303,19.1580748 57.3392177,19.140829 C57.0642041,18.282114 57.2484269,18.110306 57.3649693,17.8454352 C57.4851433,17.5760089 57.9331547,17.3518124 57.2721976,17.1263143 C57.2154121,17.1064653 57.1437699,17.092148 57.0642041,17.079783 C57.5,16.5441844 58.8156413,16.4130506 59.7526023,16.8422453 L59.7526023,16.8422453 Z M46.2277441,42.725065 C43.5535423,41.0323651 40.7888798,38.6065524 39.5798765,37.2649527 C39.3768352,37.1142952 39.4101802,36.4446342 39.4101802,36.4446342 C40.5013206,37.2818731 45.030296,40.4697587 49.8167871,41.9255718 C51.5051659,42.4400198 54.0968306,42.6339546 56.345141,41.3772828 C58.062903,40.4163941 60.132273,38.744194 61.365047,37.0199309 L61.5908685,37.4071499 C61.5832751,37.6642112 61.0144294,38.911772 60.7258797,39.4135296 C61.2475142,39.7096382 61.6370893,39.7896852 62.219471,39.9478267 L66.1838926,39.3380382 C67.6058417,37.0732956 68.6266605,33.4187949 67.5401422,29.9413086 C66.9188029,27.9469684 63.683679,23.9755339 63.4512546,23.7562183 C62.637769,22.9866613 63.5872757,20.0109327 61.9758215,16.7670793 C60.2709353,13.3361243 55.8347316,9.75613891 53.9066651,8.19782676 C54.4755108,8.60717249 57.9727725,9.99562894 59.6013944,11.9349775 C59.7542531,11.7342094 59.8173114,10.6932738 59.9572943,10.4297046 C58.5587858,8.62441838 58.4491766,5.4082235 58.4491766,4.54918318 C58.4491766,2.97395054 57.635691,1.18688637 57.635691,1.18688637 C57.635691,1.18688637 59.0361804,2.27858344 59.398023,4.16033728 C59.825235,6.38928658 60.7371048,8.14316056 61.9421464,9.62760826 C64.2228113,12.4286003 66.282607,13.8658659 67.3252156,12.8314382 C68.5715257,11.5871313 66.0630583,6.02549603 62.8553368,2.92091131 C59.1173969,-0.6987722 58.1371864,-0.231831726 55.94236,0.541304558 C54.191253,1.15564854 53.2440573,6.05836083 48.6784355,5.9613934 C47.9039074,5.87321161 45.9127826,5.8240771 44.9276198,5.83286274 C45.441991,5.12675764 45.8807582,4.5810718 45.8807582,4.5810718 C45.8807582,4.5810718 44.3491999,5.18760633 43.0451138,5.95813946 L42.9434281,5.8078074 C43.3841762,4.89247391 43.8582692,4.31620104 43.8582692,4.31620104 C43.8582692,4.31620104 42.6347394,5.041179 41.5185077,5.90802877 C41.7218791,4.81698249 42.4901344,4.12389315 42.4901344,4.12389315 C42.4901344,4.12389315 40.9443797,4.4001527 38.9740542,6.53506312 C36.734988,7.13671674 36.1961858,7.53499907 34.4130545,8.31236547 C31.5143517,7.68891046 30.1448963,6.68246663 28.8427911,4.82967286 C27.8487144,3.41583567 26.0830809,3.2010756 24.2748582,3.93158526 C21.6448963,5.00701262 18.3143595,6.47519062 18.3143595,6.47519062 C18.3143595,6.47519062 19.3975763,6.43451636 20.5296551,6.48332547 C18.9822497,7.06155071 17.4922901,7.8564884 17.4922901,7.8564884 C17.4922901,7.8564884 18.217626,7.83110766 19.1129884,7.84672657 C18.4939602,8.35303973 18.1525868,8.59480752 17.565583,8.97877251 C16.1485862,9.99139882 15,11.1618412 15,11.1618412 C15,11.1618412 15.9623825,10.7293925 16.8247301,10.4882755 C16.221549,11.8516767 15.0254214,12.8548665 15.2449701,14.5241381 C15.4565952,16.04926 17.3539579,19.1873603 19.8046493,21.1136931 C20.0162744,21.2812711 23.3636487,24.331515 25.887633,23.0790733 C28.4116173,21.8285839 29.4053639,20.7124823 29.8206906,19.0018857 C30.30898,17.0365056 30.030665,15.5540103 28.9900373,11.2906973 C28.646683,9.8830426 27.752311,6.98638468 27.3188262,5.60150757 L27.41622,5.53154785 C28.2415909,7.2483269 30.3532199,11.7729313 31.2046726,14.8111356 C32.5338499,19.5508255 32.1175328,21.9554876 31.5100598,22.8360039 C29.6780665,25.4944734 24.9790647,25.8455735 22.8420143,24.3721892 C22.5161578,29.4756697 23.6723375,31.7218649 24.0635633,32.8535854 C23.8681154,34.1545108 24.7235299,36.5699109 24.7235299,36.5699109 C24.7235299,36.5699109 24.8202633,35.4710552 25.2118193,34.89283 C25.3168065,36.184319 25.9767731,37.7175758 25.9767731,37.7175758 C25.9767731,37.7175758 25.9368251,36.7703537 26.2375903,35.952313 C26.6605104,36.6574419 26.9718403,36.8269722 27.3713198,37.3570392 C27.7707993,38.7363846 28.5753709,39.745757 28.5753709,39.745757 C28.5753709,39.745757 28.4436417,39.0058109 28.5162744,38.2349523 C30.4753748,40.0903493 30.8127865,42.796977 31.0082343,44.8752689 C31.557271,50.5956965 21.8591626,55.1408007 19.9792978,58.7178576 C18.555698,60.8355221 17.7032549,64.1890333 20.1149887,66.1641752 C25.9467296,70.9364045 23.7073332,72.2506711 26.6251845,74.3478358 C30.6285637,77.2239939 35.6408763,75.9357588 37.3460926,73.5958501 C39.7208498,70.3350763 39.1100754,67.2588008 38.228249,64.3836189 C37.5385691,62.1348206 35.6659675,58.3976698 33.3463451,56.9512932 C30.9791812,55.473028 28.6773868,55.1957923 26.7258797,55.3939572 L26.9061408,55.1909114 C29.7124019,54.6409954 32.6444496,54.9442627 34.767964,56.2913941 C37.1773868,57.8178176 39.3817875,60.4369144 40.5349957,64.4496739 C41.8420531,64.2664771 42.0275965,64.1825254 43.2220733,64.0149474 L40.5283928,43.3426629 L46.2277441,42.725065 Z M47.7830731,68.6374954 L47.4730638,65.7704484 L53.5306261,56.6616925 L60.4092675,58.6423661 L66.3251961,48.9052743 L73.4174435,53.5154573 L78.8044745,42.3804727 L80.7196652,62.6590304 L47.7830731,68.6374954 Z M80.7922978,38.2242143 L59.1418279,42.0918481 C58.6056669,42.7738741 57.2794609,43.9696972 56.6416142,44.2814247 C53.9066651,45.6389688 52.0588247,45.2455673 50.4625573,44.8368724 C49.4354657,44.5794857 48.8405383,44.4350107 47.9867746,44.057879 L42.7024198,44.772119 L45.9098112,71.1505138 L83,64.5622603 L80.7922978,38.2242143 Z" id="Fill-15"></path>
            </g>
        </g>
    </g>
</svg>