<?xml version="1.0" encoding="UTF-8"?>
<svg width="113px" height="10px" viewBox="0 0 113 10" version="1.1" xmlns="http://www.w3.org/2000/svg" xmlns:xlink="http://www.w3.org/1999/xlink">
    <!-- Generator: Sketch 62 (91390) - https://sketch.com -->
    <title>Group 15</title>
    <desc>Created with Sketch.</desc>
    <defs>
        <filter x="-4.1%" y="-3.1%" width="108.3%" height="106.2%" filterUnits="objectBoundingBox" id="filter-1">
            <feOffset dx="2" dy="4" in="SourceAlpha" result="shadowOffsetOuter1"></feOffset>
            <feGaussianBlur stdDeviation="4" in="shadowOffsetOuter1" result="shadowBlurOuter1"></feGaussianBlur>
            <feColorMatrix values="0 0 0 0 0   0 0 0 0 0   0 0 0 0 0  0 0 0 0.15 0" type="matrix" in="shadowBlurOuter1" result="shadowMatrixOuter1"></feColorMatrix>
            <feMerge>
                <feMergeNode in="shadowMatrixOuter1"></feMergeNode>
                <feMergeNode in="SourceGraphic"></feMergeNode>
            </feMerge>
        </filter>
        <polygon id="path-2" points="0 0.223610953 20.4497311 0.223610953 20.4497311 21.1505157 0 21.1505157"></polygon>
        <polygon id="path-4" points="0.215100015 0.167415238 20.4498388 0.167415238 20.4498388 21.2059301 0.215100015 21.2059301"></polygon>
    </defs>
    <g id="Page-1" stroke="none" stroke-width="1" fill="none" fill-rule="evenodd">
        <g id="DESKTOP-Copy-4" transform="translate(-602.000000, -1590.000000)">
            <g id="Group-20" filter="url(#filter-1)" transform="translate(194.000000, 1145.000000)">
                <g id="Group-8" transform="translate(0.000000, 368.000000)">
                    <rect id="Rectangle" fill="#00AA4E" x="370" y="5.68434189e-14" width="185" height="184"></rect>
                    <g id="Group-15" transform="translate(414.047619, 81.234043)">
                        <g id="Group-3">
                            <mask id="mask-3" fill="white">
                                <use xlink:href="#path-2"></use>
                            </mask>
                            <g id="Clip-2"></g>
                            <path d="M14.7453024,19.6990256 C15.4987176,20.704075 16.7902863,21.1505157 17.8665936,21.1505157 C19.3734238,21.1505157 20.4497311,20.0896611 20.4497311,18.8619494 L20.4497311,2.51106115 C20.4497311,1.22754433 19.4272392,0.223610953 18.2433012,0.223610953 L18.1356704,0.223610953 C16.897917,0.223610953 15.9292405,1.28334941 15.9292405,2.51106115 L15.9292405,14.397543 L5.70432108,1.67398496 C4.95090597,0.669493536 3.6593372,0.223610953 2.5830299,0.223610953 C1.07619967,0.223610953 -0.00010763073,1.28334941 -0.00010763073,2.51106115 L-0.00010763073,18.8619494 C-0.00010763073,20.1460242 1.02238431,21.1505157 2.20632234,21.1505157 L2.31395307,21.1505157 C3.55170647,21.1505157 4.52038305,20.0896611 4.52038305,18.8619494 L4.52038305,6.97546749 L14.7453024,19.6990256 Z" id="Fill-1" fill="#FFFFFF" mask="url(#mask-3)"></path>
                        </g>
                        <g id="Group-6" transform="translate(76.464615, 0.000000)">
                            <mask id="mask-5" fill="white">
                                <use xlink:href="#path-4"></use>
                            </mask>
                            <g id="Clip-5"></g>
                            <path d="M19.803893,17.1321593 L13.5613106,10.6587701 L19.803893,4.18538094 C20.6654769,3.29249968 20.6654769,1.84156762 19.803893,0.948686347 L19.6968004,0.837076189 C18.8352164,-0.0558050793 17.436555,-0.0558050793 16.574971,0.837076189 L11.1396192,6.47338919 L10.7629116,6.86402475 L10.5481883,7.08724507 C10.4405576,7.19885522 10.3323887,7.19885522 10.2247579,7.08724507 L9.95568112,6.80821967 L9.63332708,6.47338919 L4.19743704,0.837076189 C3.3363912,-0.0558050793 1.93772986,-0.0558050793 1.07614586,0.837076189 L0.968515128,0.948686347 C0.107469284,1.84156762 0.107469284,3.29249968 0.968515128,4.18538094 L7.10346676,10.6587701 L0.860884397,17.1321593 C-0.000161446096,18.0250406 -0.000161446096,19.4759727 0.860884397,20.3688539 L0.968515128,20.4804641 C1.83009912,21.3733454 3.22876047,21.3733454 4.08980631,20.4804641 L9.5251582,14.8441511 L9.90240391,14.4535155 L10.1171272,14.2302952 C10.2247579,14.1186851 10.3323887,14.1186851 10.4405576,14.2302952 L10.6014655,14.3977104 L11.0858038,14.8999562 L16.5211557,20.5362692 C17.3822015,21.4291504 18.7819392,21.4291504 19.6424469,20.5362692 L19.7500776,20.424659 C20.6654769,19.4759727 20.6654769,18.0250406 19.803893,17.1321593" id="Fill-4" fill="#FFFFFF" mask="url(#mask-5)"></path>
                        </g>
                        <path d="M59.9409577,19.7350868 C59.1875425,20.7535369 57.8959738,21.2059301 56.8196665,21.2059301 C55.3128362,21.2059301 54.2365289,20.1309308 54.2365289,18.8868496 L54.2365289,2.31794953 C54.2365289,1.01731915 55.2590209,0 56.4429589,0 L56.5505896,0 C57.788343,0 58.7570196,1.0738683 58.7570196,2.31794953 L58.7570196,14.3629178 L68.981939,1.46971233 C69.7353541,0.451827684 71.0269229,0 72.1032302,0 C73.6100604,0 74.6863677,1.0738683 74.6863677,2.31794953 L74.6863677,18.8868496 C74.6863677,20.1880455 73.6638758,21.2059301 72.4799377,21.2059301 L72.372307,21.2059301 C71.1345536,21.2059301 70.165877,20.1309308 70.165877,18.8868496 L70.165877,6.84188129 L59.9409577,19.7350868 Z" id="Fill-7" fill="#FFFFFF"></path>
                        <path d="M50.6800352,2.20321352 C50.6800352,0.991446083 49.8630029,0 48.9017884,0 C47.9405739,0 47.1235415,0.991446083 47.1235415,2.20321352 L47.1235415,7.49092596 C47.1235415,7.60108664 47.219663,7.71124732 47.3157844,7.71124732 L50.4877923,7.71124732 C50.5839138,7.71124732 50.6800352,7.60108664 50.6800352,7.49092596 L50.6800352,2.20321352 Z" id="Fill-9" fill="#FFFFFF"></path>
                        <path d="M45.3452947,9.77416186 L32.5460892,9.77416186 C31.3529429,9.77416186 30.3767323,10.6315445 30.3767323,11.8318801 C30.3767323,13.0322158 31.3529429,13.8324396 32.5460892,13.8324396 L38.9999259,13.8324396 L37.2644404,16.919017 C37.1559725,17.1476524 36.9932708,17.2048112 36.7763351,17.2048112 L30.4852002,17.2048112 C30.2140306,17.2048112 30.1055627,17.1476524 29.9970949,16.919017 L26.7972935,10.7458622 C26.6888257,10.5743856 26.6888257,10.4029091 26.7972935,10.1742737 L29.9970949,4.17259541 C30.1055627,3.94396005 30.2682645,3.88680121 30.4852002,3.88680121 L36.7763351,3.88680121 C37.0475047,3.88680121 37.1559725,3.94396005 37.3186743,4.17259541 L39.2710955,7.60212589 C39.3795633,7.77360241 39.4337972,7.83076126 39.6507329,7.83076126 L44.0979145,7.83076126 L39.8134347,0.228635365 C39.7049668,0.0571588413 39.596499,0 39.3795633,0 L27.881972,0 C27.6108023,0 27.5023345,0.114317683 27.3938667,0.342953048 L22.350112,10.1171149 C22.1874102,10.4029091 22.1874102,10.5743856 22.350112,10.8601798 L27.6650363,20.9201359 C27.7735041,21.1487713 27.9362059,21.2059301 28.2073755,21.2059301 L39.2168616,21.2059301 C39.4880312,21.2059301 39.6507329,21.1487713 39.7592008,20.8629771 L45.3452947,9.77416186 Z" id="Fill-13" fill="#FFFFFF"></path>
                    </g>
                </g>
            </g>
        </g>
    </g>
</svg>