<?xml version="1.0" encoding="UTF-8"?>
<svg width="153px" height="49px" viewBox="0 0 153 49" version="1.1" xmlns="http://www.w3.org/2000/svg" xmlns:xlink="http://www.w3.org/1999/xlink">
    <!-- Generator: Sketch 62 (91390) - https://sketch.com -->
    <title>Group 74</title>
    <desc>Created with Sketch.</desc>
    <defs>
        <filter x="-4.1%" y="-3.1%" width="108.3%" height="106.2%" filterUnits="objectBoundingBox" id="filter-1">
            <feOffset dx="2" dy="4" in="SourceAlpha" result="shadowOffsetOuter1"></feOffset>
            <feGaussianBlur stdDeviation="4" in="shadowOffsetOuter1" result="shadowBlurOuter1"></feGaussianBlur>
            <feColorMatrix values="0 0 0 0 0   0 0 0 0 0   0 0 0 0 0  0 0 0 0.15 0" type="matrix" in="shadowBlurOuter1" result="shadowMatrixOuter1"></feColorMatrix>
            <feMerge>
                <feMergeNode in="shadowMatrixOuter1"></feMergeNode>
                <feMergeNode in="SourceGraphic"></feMergeNode>
            </feMerge>
        </filter>
        <polygon id="path-2" points="1.61093696e-05 0.0737724029 28.2748138 0.0737724029 28.2748138 33.8390805 1.61093696e-05 33.8390805"></polygon>
    </defs>
    <g id="Page-1" stroke="none" stroke-width="1" fill="none" fill-rule="evenodd">
        <g id="DESKTOP-Copy-4" transform="translate(-244.000000, -1172.000000)">
            <g id="Group-20" filter="url(#filter-1)" transform="translate(225.000000, 732.000000)">
                <g id="Group-8" transform="translate(0.000000, 368.000000)">
                    <rect id="Rectangle" x="-2.55795385e-13" y="0" width="185" height="184"></rect>
                    <g id="Group-74" transform="translate(24.470899, 75.361702)">
                        <polygon id="Fill-1" fill="#FFFFFF" points="33.2088691 21.1278709 34.518985 21.1278709 34.5937527 11.7710767 33.0779055 11.7710767 33.0779055 10.339719 42.2853804 10.339719 42.3603082 13.5517623 40.6198377 13.5517623 40.5069656 11.7710767 36.6898101 11.7710767 36.6523462 15.5417913 40.3952143 15.5417913 40.3952143 17.077979 36.6523462 17.077979 36.6148823 21.1278709 40.6198377 21.1278709 40.7695332 19.1380003 42.5287356 19.1380003 42.3790401 22.559387 33.2088691 22.559387"></polygon>
                        <polygon id="Fill-2" fill="#FFFFFF" points="33.2135689 21.4149158 34.5693737 21.4149158 34.6494781 11.4840276 33.0779055 11.4840276 33.0779055 10.339719 42.2879248 10.339719 42.3579125 13.3120927 40.8803755 13.3120927 40.7634529 11.4840276 36.4892265 11.4840276 36.4474328 15.680205 40.3261126 15.680205 40.3261126 16.9321329 36.4504181 16.9321329 36.4086245 21.4149158 40.878717 21.4149158 41.0336188 19.3720999 42.5287356 19.3720999 42.3880968 22.559387 33.2135689 22.559387"></polygon>
                        <polygon id="Fill-3" fill="#FFFFFF" points="33.2186135 22.559387 33.2186135 21.7824021 34.6234573 21.7824021 34.7092926 12.0565242 33.0779055 12.0565242 33.0779055 11.2796935 42.2903233 11.2796935 42.3548288 13.7900947 41.1600149 13.7900947 41.0387445 12.0565242 36.2737661 12.0565242 36.2269781 16.3441243 40.2516054 16.3441243 40.2516054 17.2230114 36.2333426 17.2230114 36.1868987 21.7824021 41.1564026 21.7824021 41.3172363 19.8451813 42.5287356 19.8451813 42.3974884 22.559387"></polygon>
                        <polygon id="Fill-4" fill="#FFFFFF" points="35.9895501 16.4864496 40.1716559 16.4864496 40.1716559 17.0730437 35.9997338 17.0730437 35.9481007 22.0775588 41.455874 22.0775588 41.6229224 20.0858965 42.5287356 20.0858965 42.4079605 22.559387 33.2240505 22.559387 33.2240505 22.0775588 34.6819274 22.0775588 34.7737594 11.7613632 33.0779055 11.7613632 33.0779055 11.2796935 42.2930813 11.2796935 42.3520395 13.5436521 41.4615912 13.5436521 41.3356349 11.7613632 36.0417193 11.7613632"></polygon>
                        <polygon id="Fill-5" fill="#FFFFFF" points="33.2147254 22.559387 33.2147254 22.3897847 34.5780735 22.3897847 34.6668894 11.4491327 33.0779055 11.4491327 33.0779055 11.2796935 41.3744085 11.2796935 41.4217435 13.2829574 40.9164466 13.2829574 40.7985273 11.4491327 35.5197556 11.4491327 35.46757 16.6370057 39.3843317 16.6370057 39.3843317 16.9144032 35.4802819 16.9144032 35.4289326 22.3897847 40.9090871 22.3897847 41.0656439 20.3405325 41.5836526 20.3405325 41.4851356 22.559387"></polygon>
                        <g id="Group-16" transform="translate(44.418902, 10.339719)" fill="#FFFFFF">
                            <path d="M0.0921292993,0.122165347 L5.08233056,0.122165347 L5.08233056,1.53839353 L3.73004712,1.53839353 L5.32039371,5.53641822 L6.91090325,9.53459957 C6.97428899,9.69596186 7.0282239,9.86844717 7.07287092,10.0525255 C7.11719206,10.2369172 7.1647721,10.4153556 7.21561105,10.5879976 L7.25374026,10.5879976 C7.30441626,10.4153556 7.3519963,10.2369172 7.39664333,10.0525255 C7.44096446,9.86844717 7.49489937,9.69596186 7.55844806,9.53459957 L9.12027921,5.53641822 L10.6822733,1.53839353 L9.13934381,1.53839353 L9.13934381,0.122165347 L14.0154833,0.122165347 L14.0154833,1.53839353 L12.8153908,1.53839353 L10.5297565,6.87494185 L8.24412208,12.2113335 L5.88239221,12.2113335 L3.56824239,6.87494185 L1.25392963,1.53839353 L0.0921292993,1.53839353 L0.0921292993,0.122165347 Z" id="Fill-6"></path>
                            <path d="M0.255074647,0.278827756 L4.62135817,0.278827756 L4.91938521,0.673617029 L4.16951072,1.38173112 L3.7289065,1.97407169 L4.94627119,5.03415854 L5.30246972,5.92979753 L6.63959924,9.29098953 C6.66827762,9.36399421 6.8126472,9.74390055 6.83317832,9.8291249 C6.88727617,10.0030202 6.93892985,10.181772 6.98748756,10.3630304 C6.99710133,10.403136 7.04060774,10.5566651 7.0508733,10.5956741 C7.06423482,10.646276 7.23972696,10.695938 7.25406615,10.74466 L7.37708988,10.74466 C7.38833311,10.7065911 7.43265425,10.5536885 7.4432457,10.5145229 C7.47045757,10.4175489 7.49685471,10.3182249 7.52260008,10.217491 C7.54492359,10.1283501 7.56838772,10.0401492 7.59250363,9.95288821 C7.6164566,9.86688054 7.64415731,9.78384947 7.67120624,9.70269834 C7.68407892,9.66384606 7.74013212,9.51470345 7.75430836,9.47867109 L9.2097362,5.753239 L9.42042454,5.21369366 L10.7525028,1.80409298 L10.4344334,1.38173112 L9.86624301,1.38173112 L9.30228916,0.825109579 L9.30228916,0.526511026 L9.56593473,0.278827756 L13.852538,0.278827756 L13.852538,1.10616194 L13.5884036,1.38173112 L12.9991932,1.38173112 L12.6050284,1.6181347 L10.420746,6.71827944 L8.19377196,11.9175915 L7.97346986,12.0546711 L5.99107676,12.0546711 L3.67676399,6.71827944 L1.46396618,1.61547143 L1.07420091,1.38173112 L0.513668913,1.38173112 L0.255074647,1.10819855 L0.255074647,0.278827756 Z" id="Fill-8"></path>
                            <path d="M6.09963095,11.898087 L3.78531818,6.5615387 L1.47116836,1.22499038 L0.418052583,1.22499038 L0.418052583,0.435568497 L4.75647245,0.435568497 L4.75647245,1.22499038 L3.25656053,1.22499038 L4.93147576,5.43576262 L6.60655393,9.64653487 C6.66391069,9.79254423 6.71409786,9.95343653 6.75548597,10.1237286 C6.80029594,10.3100002 6.84966838,10.4951751 6.90213679,10.673457 L6.96910732,10.9014008 L7.50063505,10.9014008 L7.56744264,10.672987 C7.61909631,10.4965851 7.66846875,10.3117235 7.71393051,10.1235719 C7.75499273,9.95343653 7.8051799,9.79270089 7.86318844,9.64559489 L9.50795878,5.43529264 L11.1527291,1.22499038 L9.4652671,1.22499038 L9.4652671,0.435568497 L13.6896252,0.435568497 L13.6896252,1.22499038 L12.5972396,1.22499038 L10.3116052,6.5615387 L8.02597085,11.898087 L6.09963095,11.898087 Z" id="Fill-10"></path>
                            <path d="M0.580965341,1.06832797 L0.580965341,0.592074244 L4.59349452,0.592074244 L4.59349452,1.06832797 L3.01976835,1.06832797 L6.45433038,9.70246335 C6.50908002,9.84157957 6.5571489,9.99557871 6.59674462,10.1591343 C6.64220637,10.3480691 6.69206764,10.535594 6.74535077,10.7160691 L6.84588805,11.0580632 L7.62395209,11.0580632 L7.72432642,10.7154425 C7.77679482,10.5363774 7.8266561,10.3491658 7.87276963,10.1589776 C7.91203946,9.99573538 7.96010834,9.84157957 8.01550975,9.70105338 L11.3879896,1.06832797 L9.62817986,1.06832797 L9.62817986,0.592074244 L13.5266473,0.592074244 L13.5266473,1.06832797 L12.4880336,1.06832797 L7.91692782,11.7414246 L6.20828291,11.7414246 L1.57982032,1.06832797 L0.580965341,1.06832797 Z" id="Fill-12"></path>
                            <path d="M6.3168371,11.5847622 L1.68837451,0.91166556 L0.743943277,0.91166556 L0.743943277,0.748893316 L4.43058176,0.748893316 L4.43058176,0.91166556 L2.78304135,0.91166556 L6.30217202,9.75854849 C6.35415158,9.89077156 6.40010217,10.0378776 6.43806844,10.1948533 C6.48401902,10.3861381 6.53469503,10.5758563 6.58846699,10.758838 L6.72273396,11.2147256 L7.7473343,11.2147256 L7.88111243,10.757898 C7.93439556,10.5761696 7.98490862,10.3866081 8.03134804,10.19454 C8.06915136,10.0381909 8.11510195,9.89077156 8.16789624,9.75666854 L11.6233153,0.91166556 L9.79115779,0.91166556 L9.79115779,0.748893316 L13.3637345,0.748893316 L13.3637345,0.91166556 L12.3790558,0.91166556 L7.80762408,11.5847622 L6.3168371,11.5847622 Z" id="Fill-14"></path>
                        </g>
                        <polygon id="Fill-17" fill="#FFFFFF" points="59.6711957 21.1278709 60.9811737 21.1278709 61.0559427 11.7710767 59.5402299 11.7710767 59.5402299 10.339719 68.7477006 10.339719 68.8227898 13.5517623 67.0822898 13.5517623 66.9694159 11.7710767 63.1520356 11.7710767 63.1147311 15.5417913 66.8576627 15.5417913 66.8576627 17.077979 63.1147311 17.077979 63.0771065 21.1278709 67.0822898 21.1278709 67.2319879 19.1380003 68.99106 19.1380003 68.841362 22.559387 59.6711957 22.559387"></polygon>
                        <polygon id="Fill-18" fill="#FFFFFF" points="58.7308103 21.4149158 60.0864492 21.4149158 60.1665537 11.4840276 58.5951469 11.4840276 58.5951469 10.339719 67.8050003 10.339719 67.8751539 13.3120927 66.3977828 13.3120927 66.2806943 11.4840276 62.0064678 11.4840276 61.9645084 15.680205 65.843354 15.680205 65.843354 16.9321329 61.9676595 16.9321329 61.9257 21.4149158 66.3957926 21.4149158 66.5508602 19.3720999 68.045977 19.3720999 67.9051723 22.559387 58.7308103 22.559387"></polygon>
                        <polygon id="Fill-19" fill="#FFFFFF" points="58.7358574 22.559387 58.7358574 21.7824021 60.1405548 21.7824021 60.2265637 12.0565242 58.5951469 12.0565242 58.5951469 11.2796935 67.8075603 11.2796935 67.872239 13.7900947 66.6774034 13.7900947 66.5561308 12.0565242 61.7910656 12.0565242 61.7441048 16.3441243 65.7689773 16.3441243 65.7689773 17.2230114 61.7506415 17.2230114 61.7040246 21.7824021 66.673791 21.7824021 66.8346276 19.8451813 68.045977 19.8451813 67.9148994 22.559387"></polygon>
                        <polygon id="Fill-20" fill="#FFFFFF" points="58.5951469 11.7615149 58.5951469 11.2796935 67.8103182 11.2796935 67.8692776 13.5437788 66.978991 13.5437788 66.8530324 11.7615149 61.5590167 11.7615149 61.5068466 16.4865349 65.6888528 16.4865349 65.6888528 17.0731208 61.5170305 17.0731208 61.4652177 22.0775655 66.9732738 22.0775655 67.1401466 20.0857728 68.045977 20.0857728 67.9253783 22.559387 58.7412946 22.559387 58.7412946 22.0775655 60.1990205 22.0775655 60.2910328 11.7615149"></polygon>
                        <polygon id="Fill-21" fill="#FFFFFF" points="59.6770525 22.559387 59.6770525 22.3897847 61.0402602 22.3897847 61.1290778 11.4491327 59.5402299 11.4491327 59.5402299 11.2796935 67.8367288 11.2796935 67.8840647 13.2829574 67.3789252 13.2829574 67.2610035 11.4491327 61.9819607 11.4491327 61.9297741 16.6370057 65.8467801 16.6370057 65.8467801 16.9144032 61.9424862 16.9144032 61.8909687 22.3897847 67.3715655 22.3897847 67.5279581 20.3405325 68.045977 20.3405325 67.9476253 22.559387"></polygon>
                        <g id="Group-52" transform="translate(69.936143, 10.339719)" fill="#FFFFFF">
                            <path d="M11.1989779,11.3574537 C10.9827285,11.3574537 10.7793724,11.3067648 10.5885833,11.2052243 C10.3977942,11.1038463 10.2070051,10.9038522 10.016216,10.6052421 L8.56628406,8.31286487 C8.33746769,7.95463016 8.08939289,7.64432255 7.82238607,7.38145463 C7.55521603,7.11891164 7.23728859,6.97561775 6.86844053,6.95173544 L6.86844053,6.91583074 C7.2882092,6.87992603 7.69182038,6.78764607 8.07992688,6.63817853 C8.46770697,6.48903591 8.80783058,6.28010628 9.10062413,6.01138963 C9.39309126,5.74267299 9.62500856,5.40864552 9.79686564,5.00833245 C9.96855952,4.60850677 10.0544065,4.13979605 10.0544065,3.60252522 C10.0544065,3.14892372 9.97149725,2.71904206 9.80649486,2.31304273 C9.64100286,1.90720585 9.39309126,1.55498234 9.06227046,1.25637218 C8.73144965,0.957924488 8.31184418,0.722025713 7.80312763,0.54883832 C7.29441107,0.375975857 6.69674665,0.289219696 6.00997114,0.289219696 L0.0769031887,0.289219696 L0.0769031887,1.75773831 L1.46954943,1.75773831 L1.39316851,11.3574537 L0.0769031887,11.3574537 L0.0769031887,12.8261348 L5.07528404,12.8261348 L5.07528404,11.3574537 L3.52987595,11.3574537 L3.56806641,7.48884381 L4.71622841,7.48884381 C4.86915347,7.48884381 5.00641064,7.50411549 5.12767352,7.53368407 C5.24860999,7.56357758 5.36677194,7.62044023 5.48150653,7.7039471 C5.59624113,7.78745396 5.70771158,7.89809244 5.81624431,8.03521266 C5.92477703,8.17249535 6.04897764,8.35494324 6.18949896,8.58141906 L8.02623174,11.5009101 C8.21751047,11.8113802 8.39915998,12.0531277 8.57134348,12.2261526 C8.74369018,12.39934 8.92223876,12.5306115 9.10747882,12.6201296 C9.29206606,12.7096476 9.49313722,12.7665103 9.71003946,12.7902301 C9.9267785,12.8144374 10.1751797,12.8261348 10.4549167,12.8261348 L11.6951275,12.8261348 L11.6951275,11.3574537 L11.1989779,11.3574537 Z M5.23522701,5.91293601 L3.56806641,5.91293601 L3.60625687,1.75773831 L5.38831527,1.75773831 C6.16762921,1.75773831 6.76496722,1.9369369 7.18032931,2.29500914 C7.59552819,2.65324385 7.80312763,3.1609461 7.80312763,3.81746604 C7.80312763,4.49803076 7.56680374,5.01743047 7.09415595,5.37566518 C6.62134497,5.73373743 6.00164758,5.91293601 5.23522701,5.91293601 L5.23522701,5.91293601 Z" id="Fill-22"></path>
                            <path d="M0.240028692,0.451619431 L0.240028692,1.28766289 L0.536902419,1.59537107 L1.35603889,1.59537107 L1.6318589,1.85661434 L1.55711004,11.2555234 L1.27606741,11.5198535 L0.535433555,11.5198535 L0.240028692,11.8278866 L0.240028692,12.6636051 L4.91199533,12.6636051 L4.91199533,11.8462451 L4.58296981,11.5198535 L3.69332787,11.5198535 L3.36821931,11.1950865 L3.40640977,7.32647657 L4.55228687,7.32647657 C4.628831,7.32647657 4.86123792,7.33411241 4.92195097,7.3488967 C5.05398552,7.36384345 5.17965499,7.39974815 5.30026504,7.45173687 C5.32572535,7.46278447 5.35102245,7.47383207 5.37615634,7.48617939 C5.48338341,7.53930535 5.58783596,7.61208954 5.69033003,7.70193254 C5.72101296,7.72906414 5.75218552,7.75814533 5.7838477,7.78933856 C5.89662381,7.90062689 6.0134801,8.04018408 6.13115242,8.20784768 C6.18909094,8.2814442 6.43667612,8.66664805 6.51077215,8.78622208 L7.98469553,11.1289634 C8.05226328,11.238627 8.29805318,11.6181446 8.36088791,11.6935283 C8.40821798,11.7593265 8.45489521,11.8202507 8.5007564,11.8764635 C8.64356262,12.0519254 8.78669526,12.1903454 8.92656375,12.2941603 C8.94467974,12.3076449 8.96263252,12.320967 8.98091171,12.3336393 C9.11686323,12.4291685 9.25950624,12.5008155 9.40688226,12.5484176 C9.45241704,12.5632019 9.49909428,12.5760366 9.54675075,12.5872467 C9.66083252,12.6138909 9.78291144,12.6328993 9.91249788,12.6428096 C10.0287013,12.6517452 10.1540444,12.6575939 10.2883638,12.6605183 C10.3409165,12.6626303 10.5617358,12.6636051 10.6203271,12.6636051 L11.532002,12.6636051 L11.532002,11.8426709 L11.4471343,11.7538027 C11.3681421,11.7538027 11.2912715,11.5089683 11.2173387,11.4870356 C11.1649492,11.4717639 10.9477206,11.4509684 10.8985952,11.4248116 C10.8760726,11.4126268 10.7719465,11.3988173 10.7499135,11.3833831 C10.5667952,11.3302571 10.3936324,11.2303413 10.2265084,11.0829858 C10.1762406,11.0387954 10.1258096,10.9881064 10.0755418,10.9304315 C10.0096061,10.8743811 9.77948409,10.5348299 9.71371162,10.4318272 L8.58872504,8.65332594 C8.53356103,8.56689471 8.31551634,8.23270478 8.25529292,8.15797101 C8.14969792,8.01061551 8.04034916,7.87333282 7.92757305,7.74612294 C7.77383195,7.57326048 7.60638146,7.44003941 7.4235895,7.34077346 C7.37217926,7.31299199 7.31962657,7.28813489 7.2651154,7.26733941 C7.22398721,7.23517139 7.02813868,7.1982919 6.9827671,7.17603423 C6.8977362,7.13444327 6.80519777,6.82316086 6.70515182,6.81666227 L6.70515182,6.7667856 C6.75639885,6.76239905 6.95616435,6.74355315 7.00643213,6.7359173 C7.31783129,6.69855042 7.62155972,6.62787826 7.91467968,6.52422577 C7.98730685,6.49855635 8.05862835,6.47077488 8.12897062,6.44088137 C8.43253583,6.31220931 8.70525491,6.14178382 8.94451653,5.9318794 C8.97454664,5.90556012 9.00376071,5.87859097 9.03264837,5.85097197 C9.28741466,5.60613763 9.49305561,5.30265354 9.64679671,4.94458129 C9.80935099,4.56587603 9.89128096,4.11649861 9.89128096,3.60246023 C9.89128096,3.17127886 9.81212551,2.75991819 9.65512027,2.37406448 C9.49925748,1.99194745 9.26423925,1.65791998 8.95284009,1.37669355 C8.63899282,1.09400494 8.2365241,0.868178976 7.75049333,0.702627425 C7.25956636,0.535776157 6.67675378,0.451619431 6.01005275,0.451619431 L0.240028692,0.451619431 Z M5.2351454,6.07533575 L3.40347204,6.07533575 L3.44460023,1.59537107 L5.38839688,1.59537107 C6.20622769,1.59537107 6.84224579,1.78854162 7.28714836,2.17228329 C7.73874242,2.56203616 7.96641634,3.11311649 7.96641634,3.81740106 C7.96641634,4.54979202 7.70724345,5.11516925 7.19297786,5.50492211 C6.69209525,5.88427724 6.0364923,6.07533575 5.2351454,6.07533575 L5.2351454,6.07533575 Z" id="Fill-24"></path>
                            <path d="M11.1989779,11.6823832 C10.9293598,11.6823832 10.6721454,11.6182096 10.4348422,11.4919745 C10.1913372,11.3624902 9.96447934,11.1296782 9.74006957,10.7784295 L8.29095367,8.48718952 C8.07633632,8.1515374 7.8416445,7.85715133 7.59291687,7.61280439 C7.38156367,7.40501201 7.13756905,7.29486093 6.8472236,7.27585256 L6.54202631,7.25619433 L6.54202631,6.61754551 L6.84053211,6.59203855 C7.22798578,6.55905821 7.60515741,6.47262698 7.96225456,6.33501936 C8.30939607,6.20163582 8.61802071,6.01236442 8.87915208,5.77272896 C9.13620328,5.53650526 9.34412913,5.23643292 9.49672777,4.88079764 C9.65030566,4.52321279 9.72799224,4.09316867 9.72799224,3.60252522 C9.72799224,3.19360151 9.65259056,2.80076182 9.50390889,2.4352162 C9.35783853,2.07665656 9.13538724,1.7609876 8.84308331,1.4971449 C8.54669921,1.22989043 8.16136723,1.01413728 7.69769584,0.856384037 C7.22472164,0.695706428 6.65692412,0.614149138 6.00997114,0.614149138 L0.403317402,0.614149138 L0.403317402,1.43280887 L1.79841175,1.43280887 L1.71697141,11.6823832 L0.403317402,11.6823832 L0.403317402,12.5012054 L4.74886983,12.5012054 L4.74886983,11.6823832 L3.20019759,11.6823832 L3.24491634,7.16391437 L4.71622841,7.16391437 C4.89330812,7.16391437 5.05782088,7.18227288 5.20650256,7.21834005 C5.36807759,7.25846883 5.52540924,7.33352753 5.67425413,7.44172904 C5.81167451,7.54180731 5.94566754,7.67372866 6.07280588,7.8342438 C6.18900934,7.98143684 6.31794295,8.17005838 6.46613501,8.40904399 L8.30449986,11.330972 C8.4822324,11.6193469 8.6500093,11.8435482 8.80326078,11.9974023 C8.94867831,12.143783 9.09899206,12.2547464 9.25028504,12.3281805 C9.40059879,12.4008022 9.56739645,12.4477545 9.74627144,12.4674127 C9.94815863,12.4898328 10.1866042,12.5012054 10.4549167,12.5012054 L11.3687133,12.5012054 L11.3687133,11.6823832 L11.1989779,11.6823832 Z M5.23522701,6.23786546 L3.23871447,6.23786546 L3.28278039,1.43280887 L5.38831527,1.43280887 C6.24482617,1.43280887 6.91952435,1.64027632 7.39413062,2.04952495 C7.88211987,2.47063351 8.12954184,3.06541685 8.12954184,3.81746604 C8.12954184,4.60168325 7.84768317,5.21287553 7.29179976,5.63414655 C6.76300873,6.03478455 6.07117381,6.23786546 5.23522701,6.23786546 L5.23522701,6.23786546 Z" id="Fill-26"></path>
                            <path d="M0.566442906,0.776548873 L0.566442906,0.95022366 L0.875067545,1.27044163 L1.6731503,1.27044163 L1.96072122,1.54208264 L1.88123936,11.5685929 L1.58665053,11.8447829 L0.871313781,11.8447829 L0.566442906,12.1640261 L0.566442906,12.3386757 L4.58558112,12.3386757 L4.58558112,12.1698748 L4.25769804,11.8447829 L3.36283347,11.8447829 L3.03854095,11.5195285 L3.0832597,7.00154712 L4.55424535,7.00154712 C4.61218388,7.00154712 4.82973895,7.00544628 4.88180202,7.01324458 C4.93794526,7.0173062 4.99261964,7.0233174 5.04582516,7.03127817 C5.17900216,7.05109886 5.30728295,7.08700357 5.42919865,7.13850488 C5.46543063,7.1536141 5.50117299,7.17051043 5.53675214,7.18886895 C5.68673947,7.26587722 5.83134097,7.37342887 5.96974059,7.50697487 C6.05672998,7.59031927 6.14535144,7.68909782 6.23527855,7.80266066 C6.28734162,7.87089585 6.36241689,7.96658757 6.39766963,8.02117571 C6.45936191,8.09932124 6.72033008,8.50515812 6.79769025,8.62976856 L8.25904668,10.9526891 C8.32922574,11.0669018 8.5810543,11.4540553 8.64405224,11.5263521 C8.67391915,11.5669682 8.70313322,11.6051475 8.73202088,11.6410522 C8.8658507,11.8079034 8.99870129,11.9380377 9.12616604,12.0314549 C9.13856978,12.0407154 9.15113673,12.049326 9.16337726,12.0580991 C9.28953635,12.1464799 9.42075487,12.2111409 9.55540073,12.2499699 C9.56437712,12.2524069 9.5731903,12.2550063 9.58200349,12.2574433 C9.69396356,12.2883116 9.81734814,12.3095945 9.95085155,12.3195048 C10.0546513,12.3274656 10.1669378,12.3326645 10.2870582,12.3354264 C10.3396109,12.3377009 10.5617358,12.3386757 10.6209799,12.3386757 L11.2055878,12.3386757 L11.2055878,12.1585023 C11.1035833,12.1503791 11.0051695,11.8103404 10.9111622,11.7711864 C10.8819481,11.759164 10.7683559,11.745517 10.7399579,11.7304078 C10.5044501,11.6767944 10.2819988,11.563719 10.0719512,11.3915063 C9.97190527,11.3096241 9.87381779,11.2100333 9.77768881,11.0909466 C9.71811821,11.0306722 9.51394612,10.7252385 9.4560076,10.6342583 L8.2732457,8.76428935 C8.23374958,8.70222782 8.07250096,8.45349433 8.03023032,8.3979314 C7.90521367,8.21840788 7.77252629,8.05448098 7.63820685,7.90403865 C7.56166271,7.81825728 7.41787725,7.72792689 7.26723709,7.6463696 C7.06861404,7.53946781 6.85383349,7.46083489 6.76521203,7.43419068 C6.7231046,7.42135596 6.62697561,7.29349623 6.58013517,7.2904094 L6.39962811,7.16839839 L6.3787376,7.14906509 L6.37955364,6.69140197 C6.37955364,6.69140197 6.40942054,6.5940856 6.45740343,6.57767667 C6.49314578,6.56549181 6.68834148,6.53722295 6.73958851,6.51967676 C7.10484602,6.44461806 7.52559394,6.32098241 7.82573181,6.21115626 C7.89329955,6.18629915 7.94830035,6.16517874 7.98469553,6.14958213 C8.26426931,6.03049549 8.51691391,5.87566661 8.7349586,5.68298345 C8.75731798,5.66316275 8.77935094,5.64285466 8.80105748,5.62222164 C9.02612008,5.40679342 9.20956487,5.1361272 9.34665884,4.81704648 C9.49142354,4.47944479 9.56486674,4.07100849 9.56486674,3.60246023 C9.56486674,3.21449448 9.49354524,2.8422878 9.3526975,2.49623795 C9.21788843,2.16513484 9.01763331,1.87854708 8.74997366,1.63257549 C8.74018123,1.62347746 8.7302256,1.6145419 8.72010676,1.60560634 C8.4478773,1.3640213 8.09567637,1.1669516 7.67280675,1.01975856 C7.65615963,1.01390983 7.63967571,1.00838603 7.62286538,1.00286223 C7.17127131,0.852744828 6.62877089,0.776548873 6.01005275,0.776548873 L0.566442906,0.776548873 Z M3.12096054,1.27044163 L5.38839688,1.27044163 C6.28505672,1.27044163 6.99598688,1.49123118 7.50094967,1.9267991 C8.02631335,2.38007567 8.29283055,3.01612505 8.29283055,3.81740106 C8.29283055,4.65506916 7.98910212,5.30980198 7.39062166,5.76340348 C7.1296535,5.96112305 6.51485233,6.20790696 6.17538155,6.30554826 C5.88454648,6.36858457 5.57069922,6.40026519 5.2351454,6.40026519 L3.0739569,6.40026519 L3.12096054,1.27044163 Z" id="Fill-28"></path>
                            <path d="M10.2810848,11.7785298 C9.9868224,11.6222387 9.71965236,11.3518975 9.46358041,10.9514219 L8.01544375,8.66148167 C7.81420939,8.34662504 7.59485904,8.07157227 7.36375777,7.84395919 C7.25310336,7.7352703 6.4160141,7.54518657 6.4160141,7.54518657 L6.21559578,7.07777557 L6.21722785,6.59070634 C6.21722785,6.59070634 7.72428227,6.07845507 7.84456591,6.03199016 C8.15335376,5.91322845 8.42705208,5.74556486 8.65782692,5.53387333 C8.88076783,5.32916778 9.06192772,5.06646232 9.19641038,4.75306788 C9.3325251,4.43593674 9.40156171,4.04878331 9.40156171,3.60249272 C9.40156171,3.23564738 9.33432038,2.88391126 9.201633,2.55735717 C9.07237298,2.24022604 8.88337915,1.97215925 8.62420626,1.73804759 C8.36046358,1.5003617 8.01315885,1.30719115 7.59208452,1.16389726 C7.15322061,1.01475465 6.62083902,0.939046087 6.00995482,0.939046087 L0.729715295,0.939046087 L0.729715295,1.10784693 L2.12742096,1.10784693 L2.04092119,12.0072801 L0.729715295,12.0072801 L0.729715295,12.1762434 L4.42243929,12.1762434 L4.42243929,12.0072801 L2.87066612,12.0072801 L2.92158674,6.8391149 L4.71621209,6.8391149 C4.91924173,6.8391149 5.11052046,6.86056024 5.28547848,6.90296353 C5.48850812,6.95349006 5.68403023,7.04641988 5.8669854,7.17947849 C5.96964267,7.25421226 6.06887259,7.34600482 6.16581761,7.44803267 C6.21853351,7.50749476 6.31498891,7.61537133 6.32935113,7.63340492 C6.4527357,7.78969598 6.5881976,7.98725308 6.74275473,8.23647396 L8.58258845,11.1608389 C8.74726442,11.4279309 8.89953665,11.6326365 9.03516176,11.7687819 C9.15495577,11.8891683 9.27523941,11.9788488 9.39307494,12.0358739 C9.50960482,12.0924116 9.64049691,12.1288037 9.7824871,12.1444004 C9.97213376,12.1656832 10.1983388,12.1762434 10.4549004,12.1762434 L11.0422828,12.1762434 L11.0422828,12.0012689 C10.7752759,11.980311 10.52002,11.9057397 10.2810848,11.7785298 M5.23521069,6.5627624 L2.90934621,6.5627624 L2.95928758,1.10784693 L5.38829895,1.10784693 C6.32559737,1.10784693 7.07226988,1.34212106 7.60791561,1.8038458 C8.17065371,2.28945285 8.45593973,2.96693073 8.45593973,3.81743355 C8.45593973,4.70839008 8.13083118,5.40666345 7.48959045,5.8927579 C7.29276268,6.04173804 6.44996118,6.36358066 6.21559578,6.46317153 C5.91186735,6.52945714 5.5846371,6.5627624 5.23521069,6.5627624" id="Fill-30"></path>
                            <path d="M12.5153085,11.3574537 L13.8124786,11.3574537 L13.8888595,1.75773831 L12.2101112,1.75773831 L12.2101112,0.289219696 L15.7203697,0.289219696 L21.9015124,7.8651121 C22.0031904,7.99654606 22.1112336,8.13983994 22.2258049,8.29483129 C22.3402131,8.45014756 22.4577222,8.61439939 22.5786587,8.78742432 C22.699432,8.96061171 22.8171043,9.12762545 22.9315125,9.28895292 C23.0460839,9.45011792 23.1475987,9.60234736 23.236873,9.74564125 L23.2750634,9.74564125 L23.1986825,1.75773831 L21.7107233,1.75773831 L21.7107233,0.289219696 L26.3655532,0.289219696 L26.3655532,1.75773831 L25.0682199,1.75773831 L24.9920022,12.8261348 L23.2559682,12.8261348 L16.5786758,4.694938 C16.3880499,4.45627733 16.2098278,4.22037855 16.0446622,3.98756661 C15.8791702,3.75475466 15.7456668,3.54874939 15.6439887,3.36955081 L15.6059615,3.40545551 L15.6821792,11.3574537 L17.1510432,11.3574537 L17.1510432,12.8261348 L12.5153085,12.8261348 L12.5153085,11.3574537 Z" id="Fill-32"></path>
                            <path d="M12.373302,0.451619431 L15.4784804,0.451619431 L15.7399382,0.570868537 L21.7746842,7.96756235 C21.8730981,8.0949347 21.9804883,8.23709133 22.0944069,8.39127035 C22.2078358,8.5452869 22.3245289,8.70840148 22.4446494,8.88028916 C22.5655858,9.05363901 22.6835846,9.22114014 22.7983192,9.38263007 C22.9096264,9.53924607 23.0098356,9.68936347 23.0982938,9.83119517 L23.1652087,9.90820345 L23.437275,9.6362375 L23.3662799,2.21549891 L22.7318939,1.59537107 L22.5020983,1.59537107 L21.8739141,0.964195626 L21.8739141,0.754778601 L22.1771529,0.451619431 L26.2023298,0.451619431 L26.2023298,1.28977493 L25.9088834,1.59537107 L25.1840806,1.59537107 L24.9043437,1.85710173 L24.8299212,12.6636051 L23.5600067,12.6636051 L23.1939332,12.4939919 L16.8317937,4.7465368 C16.7900127,4.69406069 16.6222358,4.4872431 16.5825765,4.43492946 C16.4838362,4.30804451 16.3886864,4.18197189 16.2976169,4.05752391 C16.2145445,3.94396107 16.1371843,3.83413492 16.0653732,3.72837039 C16.0036809,3.63722768 15.947864,3.55128384 15.8982491,3.47053888 C15.8546728,3.40522806 15.7148043,3.16413041 15.6833053,3.10889241 L15.647563,3.14268507 L15.4446965,3.61968149 L15.5148756,10.9374175 L16.1198843,11.5198535 L16.3880336,11.5198535 L16.9878197,12.127634 L16.9878197,12.378642 L16.6968215,12.6636051 L12.6784993,12.6636051 L12.6784993,11.8278866 L12.9711296,11.5198535 L13.6949531,11.5198535 L13.9764854,11.2566606 L14.0512343,1.85141547 L13.7848803,1.59537107 L12.6674012,1.59537107 L12.373302,1.28815028 L12.373302,0.451619431 Z" id="Fill-34"></path>
                            <path d="M23.4106559,12.5012216 L16.831451,4.48943637 C16.6471902,4.25857401 16.4710897,4.0255996 16.31131,3.80026103 C16.1528359,3.57719697 16.0240654,3.37866508 15.9280997,3.20986423 L15.7229483,2.8480553 L15.278209,3.26688935 L15.3588333,11.6823994 L16.8245963,11.6823994 L16.8245963,12.5012216 L12.8416901,12.5012216 L12.8416901,11.6823994 L14.136412,11.6823994 L14.2178524,1.43282511 L12.5364928,1.43282511 L12.5364928,0.614165385 L15.5649639,0.614165385 L21.6480191,8.06999636 C21.7431689,8.19314462 21.8499063,8.33448893 21.9630089,8.48753069 C22.0754586,8.64024753 22.1913356,8.80238732 22.3108032,8.97313774 C22.4319029,9.14681253 22.5500648,9.31463859 22.6649626,9.47645345 C22.7730057,9.6281955 22.8719092,9.77652579 22.9595515,9.91689531 L23.0551908,10.0705869 L23.6045459,10.0705869 L23.5221263,1.43282511 L22.0371049,1.43282511 L22.0371049,0.614165385 L26.0391064,0.614165385 L26.0391064,1.43282511 L24.744058,1.43282511 L24.6678402,12.5012216 L23.4106559,12.5012216 Z" id="Fill-36"></path>
                            <path d="M16.6614708,11.8448479 L16.6614708,12.3387407 L13.0049788,12.3387407 L13.0049788,11.8448479 L14.2983951,11.8448479 L14.3822836,1.27034415 L12.6997815,1.27034415 L12.6997815,0.776613859 L15.4871957,0.776613859 L21.5212888,8.17233289 C21.6131744,8.29141953 21.7190958,8.43178905 21.8315455,8.58385603 C21.9431792,8.73527315 22.0582402,8.89643815 22.1768918,9.06605132 C22.2979914,9.23972611 22.4164798,9.40787709 22.531704,9.57017935 C22.6379518,9.71964689 22.7350601,9.86505282 22.8207438,10.002498 L22.9643661,10.2330354 L23.7693035,10.2330354 L23.6836198,1.27034415 L22.2003936,1.27034415 L22.2003936,0.776613859 L25.8759808,0.776613859 L25.8759808,1.27034415 L24.5819117,1.27034415 L24.505694,12.3387407 L23.4880977,12.3387407 L16.9576917,4.3864175 C16.7757158,4.15847949 16.602553,3.92891684 16.4447318,3.70650264 C16.2893586,3.48798759 16.1633627,3.29400471 16.0703347,3.12991534 L15.7623629,2.58744564 L15.1142674,3.19750067 L15.1971766,11.8448479 L16.6614708,11.8448479 Z" id="Fill-38"></path>
                            <path d="M23.5655721,12.1762922 L17.0841282,4.28359357 C16.9044372,4.05857993 16.7337226,3.83226658 16.5781862,3.61293921 C16.4257508,3.39864824 16.3028558,3.20921437 16.2124391,3.04999895 L15.8019732,2.32686847 L14.9503585,3.12814448 L15.0355526,12.0073289 L16.4982147,12.0073289 L16.4982147,12.1762922 L13.1681369,12.1762922 L13.1681369,12.0073289 L14.4602476,12.0073289 L14.5467474,1.10789567 L12.8629396,1.10789567 L12.8629396,0.939094827 L15.4092969,0.939094827 L21.3945911,8.27470191 C21.4830494,8.38956447 21.5884812,8.52912166 21.6999516,8.68005139 C21.8109325,8.83033126 21.9251775,8.99035901 22.043013,9.15883492 C22.1641127,9.33267217 22.2829274,9.50114809 22.3984781,9.66393774 C22.5029306,9.81096831 22.5982436,9.95361234 22.682132,10.0881331 L22.8735739,10.3955164 L23.9340937,10.3955164 L23.8453091,1.10789567 L22.3635517,1.10789567 L22.3635517,0.939094827 L25.7127248,0.939094827 L25.7127248,1.10789567 L24.4197981,1.10789567 L24.3437436,12.1762922 L23.5655721,12.1762922 Z" id="Fill-40"></path>
                            <path d="M27.6628049,6.77258559 C27.6628049,5.79373565 27.8216054,4.89205645 28.1396961,4.06819785 C28.4574603,3.24433925 28.9057902,2.53680539 29.4846858,1.9459212 C30.063255,1.35471208 30.7691258,0.895261845 31.602298,0.566758179 C32.4349807,0.238579443 33.3668933,0.0743276099 34.3972197,0.0743276099 C35.363569,0.0743276099 36.2284035,0.220545859 36.9915599,0.512982357 C37.7547163,0.805743784 38.4034646,1.22051622 38.9374783,1.75778705 C39.4716551,2.29505788 39.8786936,2.95190275 40.1584306,3.72783426 C40.4380044,4.50425316 40.5781993,5.37555146 40.5781993,6.34270394 C40.5781993,7.16656254 40.4476336,7.98148558 40.1871551,8.7873106 C39.9263501,9.59329808 39.5256767,10.3097675 38.9852979,10.9367189 C38.4445928,11.5635077 37.7609182,12.0710475 36.9344374,12.4590133 C36.107467,12.846979 35.1345895,13.0411244 34.0156415,13.0411244 C33.0360725,13.0411244 32.1554069,12.8947437 31.3733185,12.6023072 C30.5910668,12.3098707 29.9263243,11.8920114 29.3797437,11.3485669 C28.8326734,10.8052849 28.4096406,10.1486025 28.1109716,9.37851972 C27.8121394,8.60843694 27.6628049,7.73973808 27.6628049,6.77258559 M30.0283287,6.68290507 C30.0283287,7.29198531 30.1074841,7.87718323 30.2667743,8.43817391 C30.425738,8.99948952 30.6736496,9.49793129 31.0108355,9.93366167 C31.347695,10.369717 31.7707278,10.7157668 32.2794443,10.9724611 C32.7879977,11.2294803 33.3921904,11.3575025 34.0918592,11.3575025 C34.9694239,11.3575025 35.6782323,11.1815532 36.2191007,10.8291672 C36.7593162,10.4771062 37.1792481,10.0472245 37.4782435,9.53968472 C37.7769125,9.0323074 37.9742299,8.49812339 38.0695429,7.93664532 C38.165019,7.37565464 38.2126755,6.87997477 38.2126755,6.45025559 C38.2126755,5.88910244 38.1553898,5.33071119 38.0409816,4.77556924 C37.9264102,4.22042729 37.7196268,3.7188987 37.4209578,3.27114592 C37.1219624,2.82339315 36.7178616,2.45930971 36.2094715,2.17873314 C35.7005917,1.89831903 35.0520067,1.75778705 34.2635531,1.75778705 C33.7037527,1.75778705 33.1695759,1.85039194 32.6610225,2.03543926 C32.152306,2.22064904 31.7005487,2.51308554 31.3065668,2.91291122 C30.9120952,3.31322429 30.600696,3.82352598 30.3718797,4.44430368 C30.1427369,5.06524384 30.0283287,5.81160677 30.0283287,6.68290507" id="Fill-42"></path>
                            <path d="M27.826012,6.77258559 C27.826012,5.81566839 27.9818748,4.92942333 28.2919683,4.12636022 C28.6010826,3.32524668 29.03962,2.6329845 29.6015421,2.05932157 C30.1623217,1.4863085 30.8525246,1.03725601 31.6623583,0.717687905 C32.4739872,0.397957334 33.3900687,0.236792331 34.3972197,0.236792331 C35.3410464,0.236792331 36.190213,0.380086215 36.9329686,0.664724406 C37.6726232,0.948387809 38.3050507,1.35260003 38.821438,1.87199975 C39.3374989,2.39107453 39.7337657,3.0308606 40.0048527,3.78274733 C40.2775718,4.53983293 40.4149922,5.3969968 40.4149922,6.34270394 C40.4149922,7.1473917 40.2865482,7.94948003 40.0317819,8.73759639 C39.7781581,9.52100128 39.3862978,10.2218741 38.8614237,10.8307919 C38.3368761,11.4388973 37.6683798,11.9349021 36.864748,12.3121452 C36.0616058,12.6889009 35.1074971,12.8786597 34.0156415,12.8786597 C33.0582686,12.8786597 32.1929446,12.7352033 31.4307674,12.4502402 C30.6720175,12.1665768 30.0239221,11.7592777 29.4949679,11.2337044 C28.9653608,10.7076436 28.5529365,10.0668827 28.2632438,9.32003242 C27.9724088,8.57042019 27.826012,7.71748041 27.826012,6.77258559 M29.8651216,6.68290507 C29.8651216,7.30595727 29.9468884,7.90870139 30.1096058,8.48236432 C30.2737922,9.06236337 30.5323122,9.58160062 30.8814122,10.0327651 C31.2324707,10.4870165 31.6760677,10.8502876 32.2056747,11.1172172 C32.7357714,11.385284 33.3675461,11.5199672 34.0918592,11.5199672 C34.9996172,11.5199672 35.7420463,11.3341076 36.3085382,10.9651502 C36.8688282,10.5999295 37.3078553,10.1500647 37.618928,9.62189187 C37.9272263,9.09826807 38.131888,8.54296366 38.2304651,7.96377693 C38.3272469,7.39531287 38.3758826,6.88826047 38.3758826,6.45025559 C38.3758826,5.87935456 38.3172912,5.30747874 38.2007614,4.74291383 C38.082273,4.16860104 37.8666764,3.64546464 37.5569093,3.18130293 C37.2440413,2.71291714 36.8192132,2.3295004 36.2886269,2.03657651 C35.7562453,1.74316522 35.0779566,1.59532233 34.2635531,1.59532233 C33.6859632,1.59532233 33.1305694,1.69166391 32.6048793,1.88288488 C32.0741298,2.07605544 31.6001763,2.3829513 31.1900369,2.79918591 C30.7803871,3.21493313 30.4549521,3.74716756 30.218465,4.38825335 C29.9834467,5.02576491 29.8651216,5.79438551 29.8651216,6.68290507" id="Fill-44"></path>
                            <path d="M34.0156089,12.7161949 C33.0805954,12.7161949 32.2302863,12.575663 31.4881836,12.2981732 C30.7530988,12.0231204 30.1213241,11.6265441 29.6103227,11.1186793 C29.0981788,10.6098398 28.6961997,9.98500052 28.4154834,9.26154512 C28.1326455,8.53256591 27.9891865,7.69522274 27.9891865,6.77258559 C27.9891865,5.83760112 28.1424379,4.96679022 28.4443711,4.18468505 C28.7446722,3.40599164 29.1734172,2.72916362 29.7183658,2.17272195 C30.2616822,1.61774246 30.9358908,1.17908771 31.7223858,0.868780096 C32.5132875,0.557172761 33.4132115,0.399257052 34.3971871,0.399257052 C35.3184912,0.399257052 36.1521531,0.539464106 36.8743446,0.816303991 C37.5906606,1.09103183 38.2069306,1.48484632 38.7053651,1.98637491 C39.20331,2.48692872 39.588642,3.10981846 39.8512422,3.83766041 C40.1171066,4.57557517 40.2517524,5.41844214 40.2517524,6.34270394 C40.2517524,7.12822087 40.1255933,7.91747448 39.8763761,8.68788219 C39.6300966,9.44854201 39.2470495,10.1339807 38.7376801,10.7250273 C38.22929,11.3142869 37.5756455,11.7989191 36.7951891,12.1649521 C36.015712,12.5308227 35.0805353,12.7161949 34.0156089,12.7161949 M34.2636837,1.43285761 C33.6683042,1.43285761 33.0915302,1.53293587 32.5490298,1.73016805 C31.9960841,1.9316243 31.4997713,2.25297952 31.0736376,2.68546061 C30.6484831,3.11664198 30.3093387,3.67080914 30.0653441,4.33236548 C29.824124,4.98628598 29.7018818,5.77716425 29.7018818,6.68290507 C29.7018818,7.31992924 29.7862599,7.94038201 29.952568,8.52655472 C30.1221401,9.12507475 30.3911055,9.66526995 30.7521196,10.1320311 C31.1172139,10.604316 31.5815381,10.9846459 32.1318725,11.2622982 C32.6835125,11.5410876 33.3430324,11.6824319 34.0918266,11.6824319 C35.0299411,11.6824319 35.8058276,11.4868244 36.397943,11.1011332 C36.9783075,10.7227528 37.4365931,10.2529048 37.7597431,9.70409902 C38.0775074,9.16439121 38.2898398,8.58796638 38.3913546,7.99074607 C38.4892789,7.4149711 38.5390571,6.89670864 38.5390571,6.45025559 C38.5390571,5.86976914 38.4791601,5.28424628 38.3606717,4.71025842 C38.2381032,4.11661233 38.0135302,3.57203059 37.6928282,3.09145994 C37.3662508,2.60227867 36.9205322,2.19969109 36.3677497,1.89458234 C35.8118663,1.58817388 35.1038739,1.43285761 34.2636837,1.43285761" id="Fill-46"></path>
                            <path d="M34.0156089,12.5537302 C33.1001802,12.5537302 32.2691296,12.41661 31.5454693,12.1459438 C30.8320911,11.8793392 30.2199012,11.4949476 29.7257101,11.0036543 C29.2297237,10.5110613 28.8401483,9.90523034 28.5677557,9.20305782 C28.2922621,8.49259959 28.1523936,7.67507712 28.1523936,6.77258559 C28.1523936,5.85758428 28.3018913,5.00659407 28.5966433,4.24300989 C28.8891105,3.48511196 29.3057782,2.82664245 29.8352221,2.28612232 C30.362381,1.74755177 31.0174943,1.32156927 31.782446,1.01987229 C32.5540892,0.715900793 33.4339388,0.561721773 34.3971871,0.561721773 C35.2984167,0.561721773 36.1123306,0.698354603 36.81559,0.967883575 C37.5103627,1.23448818 38.1072111,1.61546795 38.5893248,2.10058761 C39.0704594,2.58440755 39.4433876,3.18731413 39.6975011,3.89257348 C39.9570004,4.61277959 40.0885453,5.43712559 40.0885453,6.34270394 C40.0885453,7.11132454 39.9648343,7.88368182 39.7211661,8.63800552 C39.4814149,9.37803232 39.1089763,10.0446251 38.6138059,10.6192628 C38.120594,11.1909761 37.4852288,11.6616364 36.7254997,12.018084 C35.9678923,12.3737193 35.0562174,12.5537302 34.0156089,12.5537302 M34.2636837,1.27039289 C33.6490457,1.27039289 33.0533398,1.37372045 32.4930498,1.57761367 C31.9170919,1.78735563 31.4003782,2.12187049 30.9571077,2.5717353 C30.5156325,3.01948807 30.1640844,3.59298854 29.9120926,4.27631515 C29.6643442,4.94810678 29.5386747,5.75783094 29.5386747,6.68290507 C29.5386747,7.33503846 29.6251745,7.97027552 29.7957259,8.57074512 C29.970684,9.18924832 30.2489521,9.74780203 30.6228596,10.2311346 C31.0028057,10.7227528 31.4858987,11.1185169 32.0581028,11.4070542 C32.6325919,11.6973787 33.3170825,11.8448966 34.0918266,11.8448966 C35.0622561,11.8448966 35.8681728,11.6403536 36.4872173,11.2371161 C37.0887987,10.8447638 37.5643842,10.3568823 37.9005909,9.78630617 C38.2283107,9.22953957 38.4474979,8.63459376 38.5522768,8.01787768 C38.6518332,7.43300468 38.7022642,6.90548173 38.7022642,6.45025559 C38.7022642,5.85855907 38.6412247,5.26215108 38.5206147,4.67760301 C38.3936395,4.06348637 38.1610694,3.49957132 37.8287797,3.00161695 C37.4875137,2.49050294 37.022863,2.07036917 36.4469052,1.75242571 C35.8663775,1.43253268 35.1319455,1.27039289 34.2636837,1.27039289" id="Fill-48"></path>
                            <path d="M34.0156089,12.3912655 C33.1197651,12.3912655 32.3079729,12.2577195 31.6029182,11.9940393 C30.9112465,11.7353954 30.3186415,11.3635137 29.8410975,10.8887918 C29.3611054,10.4121203 28.984097,9.82546016 28.7200279,9.14457052 C28.4517154,8.45279574 28.3156007,7.65493149 28.3156007,6.77258559 C28.3156007,5.87772991 28.4615078,5.04623547 28.7489155,4.30133472 C29.0335487,3.56406982 29.4381392,2.92428375 29.9522415,2.3995227 C30.4630798,1.87752355 31.0992611,1.46405083 31.8428327,1.17096448 C32.5950542,0.874466361 33.4545029,0.724186494 34.3971871,0.724186494 C35.2783423,0.724186494 36.0725081,0.857082636 36.7569987,1.11946316 C37.430228,1.3776196 38.0076547,1.74625205 38.4732846,2.21480031 C38.9376088,2.68172392 39.2978069,3.26464734 39.5440864,3.94748656 C39.7970574,4.64998401 39.9253382,5.45580903 39.9253382,6.34270394 C39.9253382,7.09426574 39.8044018,7.84988916 39.565793,8.58829131 C39.3328964,9.3076851 38.9709031,9.95526948 38.4899317,10.5133358 C38.0118981,11.0678279 37.394812,11.5243538 36.6559735,11.8712159 C35.9202358,12.216291 35.0320627,12.3912655 34.0156089,12.3912655 M34.2636837,1.10792816 C33.6299505,1.10792816 33.0153125,1.21466749 32.4369065,1.42489684 C31.8379365,1.64308696 31.3008219,1.99059899 30.8405778,2.45784753 C30.3827819,2.9221717 30.0189933,3.51516794 29.7590043,4.22042729 C29.5044012,4.91009003 29.3754676,5.73866011 29.3754676,6.68290507 C29.3754676,7.35014768 29.4639259,8.00016902 29.6387207,8.61493553 C29.8192278,9.25325942 30.1069619,9.83033411 30.4935995,10.3302381 C30.8885607,10.8413521 31.3900962,11.2523878 31.9844964,11.5521352 C32.5819977,11.8539947 33.2911325,12.0073614 34.0918266,12.0073614 C35.0944079,12.0073614 35.9303547,11.7937203 36.5764916,11.3729366 C37.1994531,10.9669373 37.6923386,10.4606972 38.0412754,9.86851332 C38.3789509,9.29468792 38.6051559,8.68122113 38.713199,8.04500929 C38.8142242,7.45103827 38.8654713,6.91441729 38.8654713,6.45025559 C38.8654713,5.84734901 38.8031262,5.24005588 38.6803944,4.64494761 C38.5493391,4.01019794 38.3087718,3.42711206 37.9647313,2.9116115 C37.609103,2.37872721 37.1250307,1.94088479 36.5262238,1.61043155 C35.9210519,1.27689147 35.1598539,1.10792816 34.2636837,1.10792816" id="Fill-50"></path>
                        </g>
                        <polygon id="Fill-53" fill="#FFFFFF" points="115.169281 21.1278709 116.54499 21.1278709 116.621491 11.7710767 113.506858 11.7710767 113.430357 13.5517623 111.519796 13.5517623 111.596133 10.339719 123.729374 10.339719 123.805875 13.5517623 121.89515 13.5517623 121.818649 11.7710767 118.761555 11.7710767 118.685054 21.1278709 120.232726 21.1278709 120.232726 22.559387 115.169281 22.559387"></polygon>
                        <polygon id="Fill-54" fill="#FFFFFF" points="115.267541 21.4149158 116.680403 21.4149158 116.761733 11.4840276 113.229244 11.4840276 113.150602 13.3120927 111.519796 13.3120927 111.590372 10.339719 123.734963 10.339719 123.805875 13.3120927 122.174564 13.3120927 122.096091 11.4840276 118.625439 11.4840276 118.544277 21.4149158 120.136603 21.4149158 120.136603 22.559387 115.267541 22.559387"></polygon>
                        <polygon id="Fill-55" fill="#FFFFFF" points="115.075117 22.559387 115.075117 21.7824021 116.415604 21.7824021 116.495235 12.0565242 112.82677 12.0565242 112.752086 13.7900947 111.519796 13.7900947 111.579479 11.2796935 122.800949 11.2796935 122.860792 13.7900947 121.628182 13.7900947 121.553658 12.0565242 117.946153 12.0565242 117.866521 21.7824021 119.379995 21.7824021 119.379995 22.559387"></polygon>
                        <polygon id="Fill-56" fill="#FFFFFF" points="116.640333 11.7615149 112.539861 11.7615149 112.462962 13.5437788 111.519796 13.5437788 111.573691 11.2796935 122.806732 11.2796935 122.860792 13.5437788 121.917462 13.5437788 121.840562 11.7615149 117.805652 11.7615149 117.72103 22.0775655 119.28054 22.0775655 119.28054 22.559387 115.176782 22.559387 115.176782 22.0775655 116.555711 22.0775655"></polygon>
                        <polygon id="Fill-57" fill="#FFFFFF" points="115.915851 22.559387 115.915851 22.3897847 117.217416 22.3897847 117.299685 11.4491327 113.120706 11.4491327 113.048061 13.2829574 112.464879 13.2829574 112.508652 11.2796935 122.816863 11.2796935 122.860792 13.2829574 122.277299 13.2829574 122.204809 11.4491327 118.090093 11.4491327 118.007824 22.3897847 119.48231 22.3897847 119.48231 22.559387"></polygon>
                        <polygon id="Fill-58" fill="#FFFFFF" points="124.881921 21.1278709 126.192037 21.1278709 126.266805 11.7710767 124.750958 11.7710767 124.750958 10.339719 133.958433 10.339719 134.033361 13.5517623 132.29289 13.5517623 132.180018 11.7710767 128.362862 11.7710767 128.325399 15.5417913 132.068427 15.5417913 132.068427 17.077979 128.325399 17.077979 128.287935 21.1278709 132.29289 21.1278709 132.442746 19.1380003 134.201788 19.1380003 134.052092 22.559387 124.881921 22.559387"></polygon>
                        <polygon id="Fill-59" fill="#FFFFFF" points="125.831702 21.4149158 127.187483 21.4149158 127.267586 11.4840276 125.696041 11.4840276 125.696041 10.339719 134.905899 10.339719 134.975885 13.3120927 133.49854 13.3120927 133.381453 11.4840276 129.107468 11.4840276 129.065343 15.680205 132.944287 15.680205 132.944287 16.9321329 129.068494 16.9321329 129.026701 21.4149158 133.49655 21.4149158 133.651615 19.3720999 135.146871 19.3720999 135.006069 22.559387 125.831702 22.559387"></polygon>
                        <polygon id="Fill-60" fill="#FFFFFF" points="125.836749 22.559387 125.836749 21.7824021 127.241593 21.7824021 127.327428 12.0565242 125.696041 12.0565242 125.696041 11.2796935 134.908459 11.2796935 134.972964 13.7900947 133.778322 13.7900947 133.657052 12.0565242 128.892073 12.0565242 128.844941 16.3441243 132.869913 16.3441243 132.869913 17.2230114 128.851478 17.2230114 128.805034 21.7824021 133.774538 21.7824021 133.935372 19.8451813 135.146871 19.8451813 135.015796 22.559387"></polygon>
                        <polygon id="Fill-61" fill="#FFFFFF" points="127.391895 11.7615149 125.696041 11.7615149 125.696041 11.2796935 134.911217 11.2796935 134.969996 13.5437788 134.079727 13.5437788 133.95377 11.7615149 128.660033 11.7615149 128.607686 16.4865349 132.789791 16.4865349 132.789791 17.0731208 128.617691 17.0731208 128.566236 22.0775655 134.073831 22.0775655 134.241058 20.0857728 135.146871 20.0857728 135.026096 22.559387 125.842186 22.559387 125.842186 22.0775655 127.299884 22.0775655"></polygon>
                        <polygon id="Fill-62" fill="#FFFFFF" points="125.832861 22.559387 125.832861 22.3897847 127.196209 22.3897847 127.285025 11.4491327 125.696041 11.4491327 125.696041 11.2796935 133.992377 11.2796935 134.039712 13.2829574 133.534582 13.2829574 133.416663 11.4491327 128.137891 11.4491327 128.085705 16.6370057 132.002634 16.6370057 132.002634 16.9144032 128.09825 16.9144032 128.047068 22.3897847 133.52739 22.3897847 133.683779 20.3405325 134.201788 20.3405325 134.103271 22.559387"></polygon>
                        <polygon id="Fill-63" fill="#FFFFFF" points="135.146871 10.339719 135.146871 12.039322 136.242516 13.1596424 137.037037 12.039322 137.034478 10.339719"></polygon>
                        <polygon id="Fill-64" fill="#FFFFFF" points="135.146871 12.0620338 135.146871 10.339719 137.033914 10.339719 137.037037 12.080775 136.250491 13.1596424"></polygon>
                        <polygon id="Fill-65" fill="#FFFFFF" points="135.146871 12.4500731 135.146871 11.2796935 136.090352 11.2796935 136.091954 12.4809759 135.705001 13.1596424"></polygon>
                        <polygon id="Fill-66" fill="#FFFFFF" points="135.146871 12.4854768 135.146871 11.2796935 136.090279 11.2796935 136.091954 12.545777 135.716304 13.1596424"></polygon>
                        <polygon id="Fill-67" fill="#FFFFFF" points="135.146871 11.9153494 135.146871 11.2796935 136.090111 11.2796935 136.091954 11.9727054 135.742003 12.2196679"></polygon>
                        <g id="Group-73">
                            <g id="Group-70">
                                <mask id="mask-3" fill="white">
                                    <use xlink:href="#path-2"></use>
                                </mask>
                                <g id="Clip-69"></g>
                                <path d="M23.5053583,16.5874361 C23.2906204,16.7879046 22.3543439,15.9993418 21.613474,15.9993418 C20.872443,15.9993418 20.2319344,16.601068 20.0440992,16.3738169 C19.8561028,16.1465658 20.2172749,14.3154065 21.613474,14.3154065 C23.009673,14.3154065 23.7200962,16.3869676 23.5053583,16.5874361 M27.7081317,6.18985743 C27.7081317,4.0259204 24.4862578,3.78423559 24.4862578,3.78423559 L16.9148541,3.30311123 C16.9148541,3.30311123 16.7537604,1.21823897 15.2233703,0.496552421 C13.6929802,-0.225134129 10.5131518,0.192962946 9.30494906,0.205792929 C8.09674634,0.218622912 7.81306034,1.77955073 7.81306034,3.24954605 C7.81306034,4.71970174 7.83996299,5.38830423 7.83996299,6.45704183 C7.83996299,7.52577942 7.2877338,8.03208263 6.42362722,8.0341675 L2.13450758,8.0341675 C0.934359544,7.95446123 1.61093696e-05,8.15444859 1.61093696e-05,9.13674417 C1.61093696e-05,10.1190398 1.41103579,20.4725154 3.35076498,22.4037486 C4.47632663,23.5242872 11.3571216,24.3122086 12.8069649,24.3122086 C14.2568082,24.3122086 13.7735271,19.9820893 14.1762613,19.9820893 C14.5789956,19.9820893 15.0220032,22.4278048 17.3042176,23.0024277 C19.586432,23.5770505 22.6336803,23.4702409 22.794774,25.1140825 C23.0072566,27.2820289 23.1975083,30.085701 21.7879384,30.2861695 L18.5973167,30.4146297 C16.4098254,30.2561794 16.9957232,27.8388502 17.9622854,27.8388502 C18.9288475,27.8388502 19.4118064,27.8003602 19.4118064,27.8003602 L19.5326267,25.1541762 C19.5326267,25.1541762 14.5232571,24.553733 14.3104524,27.9740461 C14.1160123,31.0995904 14.6461716,32.5715102 15.035374,32.8922598 C15.4247375,33.212849 16.0960149,33.8391125 22.2309461,33.8391125 C30.8762004,33.8391125 27.7081317,8.35363408 27.7081317,6.18985743" id="Fill-68" fill="#FFFFFF" mask="url(#mask-3)"></path>
                            </g>
                            <path d="M6.92702891,6.43033942 C6.92702891,6.00261986 7.0344784,1.37853357 7.0344784,1.37853357 L1.07401167,7.28561817 L5.90682254,7.28561817 C6.79283786,7.28561817 6.92702891,6.85805899 6.92702891,6.43033942" id="Fill-71" fill="#FFFFFF"></path>
                        </g>
                    </g>
                </g>
            </g>
        </g>
    </g>
</svg>