<?xml version="1.0" encoding="UTF-8"?>
<svg width="185px" height="368px" viewBox="0 0 185 368" version="1.1" xmlns="http://www.w3.org/2000/svg" xmlns:xlink="http://www.w3.org/1999/xlink">
    <!-- Generator: Sketch 62 (91390) - https://sketch.com -->
    <title>Page 1</title>
    <desc>Created with Sketch.</desc>
    <defs>
        <filter x="0.0%" y="0.0%" width="100.0%" height="100.0%" filterUnits="objectBoundingBox" id="filter-1">
            <feOffset dx="0" dy="0" in="SourceAlpha" result="shadowOffsetOuter1"></feOffset>
            <feColorMatrix values="0 0 0 0 0   0 0 0 0 0   0 0 0 0 0  0 0 0 0.15 0" type="matrix" in="shadowOffsetOuter1" result="shadowMatrixOuter1"></feColorMatrix>
            <feMerge>
                <feMergeNode in="shadowMatrixOuter1"></feMergeNode>
                <feMergeNode in="SourceGraphic"></feMergeNode>
            </feMerge>
        </filter>
        <polygon id="path-2" points="0 0 112.547529 0 112.547529 35.4589897 0 35.4589897"></polygon>
        <rect id="path-4" x="0" y="184" width="185" height="184"></rect>
        <filter x="0.0%" y="0.0%" width="100.0%" height="100.0%" filterUnits="objectBoundingBox" id="filter-5">
            <feOffset dx="0" dy="0" in="SourceAlpha" result="shadowOffsetOuter1"></feOffset>
            <feColorMatrix values="0 0 0 0 0   0 0 0 0 0   0 0 0 0 0  0 0 0 0.5 0" type="matrix" in="shadowOffsetOuter1"></feColorMatrix>
        </filter>
        <polygon id="path-6" points="5.87359468e-05 0.0124853129 26.1992227 0.0124853129 26.1992227 38.347671 5.87359468e-05 38.347671"></polygon>
        <polygon id="path-8" points="0.420981252 0.113329185 10.6659762 0.113329185 10.6659762 13.4761255 0.420981252 13.4761255"></polygon>
    </defs>
    <g id="Page-1" stroke="none" stroke-width="1" fill="none" fill-rule="evenodd">
        <g id="DESKTOP-Copy-4" transform="translate(-231.000000, -1168.000000)">
            <g id="Group-20" filter="url(#filter-1)" transform="translate(231.000000, 1168.000000)">
                <g id="Group-4">
                    <rect id="Rectangle" fill="#FF5A5F" x="-2.84217094e-14" y="0" width="185" height="184"></rect>
                    <g id="Group-3" transform="translate(36.577947, 74.159696)">
                        <mask id="mask-3" fill="white">
                            <use xlink:href="#path-2"></use>
                        </mask>
                        <g id="Clip-2"></g>
                        <path d="M30.3456921,28.7149173 C30.0995253,30.5607689 28.8686915,32.158102 27.145524,32.8685845 C26.3018072,33.2233247 25.3876153,33.3295463 24.4734234,33.2233247 C23.5949653,33.117103 22.7155147,32.8325092 21.8023153,32.3003989 C20.5357475,31.5899164 19.2701724,30.4896205 17.7931717,28.8572142 C20.1138892,25.9812131 21.5204147,23.3547326 22.0484821,21.012846 C22.2946489,19.9125501 22.3293902,18.9184758 22.2231811,17.99555 C22.0832234,17.1076974 21.7665814,16.2919953 21.2742479,15.5825149 C20.1843643,13.9841798 18.3559804,13.061254 16.3171637,13.061254 C14.2783469,13.061254 12.449963,14.020255 11.3600795,15.5825149 C10.8677459,16.2919953 10.551104,17.1076974 10.4101537,17.99555 C10.2692033,18.9184758 10.3049372,19.9476232 10.5858453,21.012846 C11.1139127,23.3547326 12.5551795,26.0172884 14.840163,28.8932895 C13.3988962,30.5256957 12.0975872,31.6249896 10.832012,32.3354721 C9.9178201,32.8685845 9.03936204,33.1521762 8.15991138,33.2583979 C7.21097816,33.3656216 6.29678622,33.2233247 5.48781073,32.9036577 C3.7656359,32.1941772 2.53480202,30.5968442 2.28863524,28.7499905 C2.18242619,27.86314 2.25290136,26.9762894 2.60527718,25.9812131 C2.71049363,25.627475 2.88618524,25.2717327 3.06187685,24.8468461 C3.30804363,24.2776584 3.58895168,23.6754017 3.87085235,23.0711409 L3.90559362,22.9999924 C6.3315275,17.7119582 8.9341456,12.3167004 11.6409875,7.06373939 L11.746204,6.85029401 C12.027112,6.3171816 12.3090127,5.7499981 12.5899208,5.21788778 C12.8718214,4.64970219 13.1874707,4.11759188 13.5745879,3.65562793 C14.3130882,2.80385059 15.2977553,2.34288873 16.3866462,2.34288873 C17.4775224,2.34288873 18.4621895,2.80385059 19.1996972,3.65562793 C19.5868143,4.11759188 19.9034563,4.64970219 20.1843643,5.21788778 C20.4652724,5.7499981 20.747173,6.3171816 21.0280811,6.85029401 L21.1342902,7.06373939 C23.8063908,12.3517735 26.4080163,17.7470314 28.8339502,23.0360677 L28.8339502,23.0711409 C29.1148582,23.6393265 29.361025,24.2776584 29.6429257,24.8468461 C29.8186173,25.2717327 29.9943089,25.627475 30.0995253,25.9812131 C30.3804334,26.9041389 30.4866424,27.7919915 30.3456921,28.7149173 L30.3456921,28.7149173 Z M16.3171637,27.0464358 C14.4183046,24.6334007 13.1874707,22.3616604 12.7656124,20.4446604 C12.5899208,19.6289583 12.5551795,18.9184758 12.6603959,18.2801438 C12.7308711,17.7119582 12.941304,17.2149211 13.2232046,16.7890324 C13.8912298,15.8310335 15.0158546,15.2277747 16.3171637,15.2277747 C17.6174801,15.2277747 18.7778388,15.7949582 19.4111227,16.7890324 C19.6920308,17.2149211 19.9034563,17.7119582 19.9739314,18.2801438 C20.0791479,18.9184758 20.0444066,19.6640315 19.8677224,20.4446604 C19.4468566,22.3255852 18.2160227,24.5983275 16.3171637,27.0464358 L16.3171637,27.0464358 Z M32.174076,25.2005842 C31.9983844,24.7746955 31.8217002,24.3127316 31.6470012,23.9239203 C31.3651005,23.2845862 31.0841924,22.6813275 30.8380257,22.1131419 L30.8022918,22.0770666 C28.3763579,16.7529572 25.7747324,11.3576993 23.0321566,6.03358985 L22.9269401,5.82114656 C22.6460321,5.28803415 22.3641314,4.72085065 22.0832234,4.15266506 C21.7318402,3.5143331 21.3804569,2.83892377 20.8166556,2.20059181 C19.6920308,0.780628881 18.0750724,0 16.351905,0 C14.5939962,0 13.0117791,0.780628881 11.8514204,2.12944335 C11.3243456,2.76777531 10.9372285,3.44318464 10.5858453,4.0815166 C10.3049372,4.64970219 10.0230365,5.21788778 9.74212849,5.7499981 L9.63691204,5.96244139 C6.9290775,11.2865508 4.29271073,16.6828108 1.86677686,22.0069202 L1.83104297,22.0770666 C1.58487619,22.6452522 1.30396814,23.248511 1.02206747,23.887845 C0.84736847,24.2776584 0.670684252,24.7045492 0.494992641,25.165511 C0.0383929749,26.4792523 -0.102557357,27.7208431 0.0731342538,28.9985091 C0.460251362,31.6610648 2.21816008,33.8977319 4.64409395,34.8908041 C5.55828589,35.2816196 6.50721911,35.4589897 7.49188622,35.4589897 C7.77279427,35.4589897 8.1251701,35.4229144 8.40607816,35.3878412 C9.56643688,35.2465464 10.7615369,34.8557309 11.9218956,34.1813237 C13.3631624,33.3656216 14.7349466,32.1941772 16.2824224,30.4896205 C17.8289056,32.1941772 19.2354311,33.3656216 20.6419566,34.1813237 C21.8023153,34.8557309 22.9974153,35.2465464 24.157774,35.3878412 C24.4386821,35.4229144 24.7900653,35.4589897 25.071966,35.4589897 C26.0556405,35.4589897 27.0403076,35.2816196 27.9197582,34.8908041 C30.3804334,33.8977319 32.1036008,31.6249896 32.4907179,28.9985091 C32.771626,27.7569183 32.6306757,26.5143255 32.174076,25.2005842 L32.174076,25.2005842 Z M67.2270338,12.7065138 C68.2474348,12.7065138 68.7745097,12.8838839 68.7745097,12.8838839 L68.7745097,16.0434767 C68.7745097,16.0434767 65.9624513,15.0844757 64.20355,17.1076974 L64.20355,26.443177 L60.8286829,26.443177 L60.8286829,13.061254 L63.6764751,13.061254 C63.9573832,13.061254 64.1688087,13.3097725 64.1688087,13.5582911 L64.1688087,14.1264767 C64.8011,13.380921 66.1728842,12.7065138 67.2270338,12.7065138 L67.2270338,12.7065138 Z M76.3689532,23.5321027 C75.0686368,23.5321027 74.0482358,22.8576955 73.521161,22.0770666 L73.521161,17.3211428 C74.0482358,16.6116623 75.1738532,15.8661066 76.3689532,15.8661066 C78.6191955,15.8661066 80.3423629,17.2860696 80.3423629,19.6991047 C80.3423629,22.1131419 78.6191955,23.5321027 76.3689532,23.5321027 L76.3689532,23.5321027 Z M76.931762,12.7065138 C74.6110445,12.7065138 73.521161,14.1264767 73.521161,14.1264767 L73.521161,6.63684863 L70.1462939,6.63684863 L70.1462939,26.4081039 L72.9940861,26.4081039 C73.2749942,26.4081039 73.4864197,26.1595853 73.4864197,25.9110667 L73.4864197,25.307808 C73.4864197,25.307808 74.5763032,26.7628441 76.8960281,26.7628441 C80.7284874,26.7628441 83.7182226,23.7806213 83.7182226,19.73518 C83.7529639,15.6887365 80.7642213,12.7065138 76.931762,12.7065138 L76.931762,12.7065138 Z M97.217691,18.4925871 L97.217691,26.443177 L93.8428239,26.443177 L93.8428239,18.8824005 C93.8428239,16.6828108 93.1400575,15.7949582 91.2411984,15.7949582 C90.2217901,15.7949582 89.1666478,16.3270685 88.4986226,17.1076974 L88.4986226,26.4081039 L85.1237555,26.4081039 L85.1237555,13.061254 L87.7958562,13.061254 C88.0767642,13.061254 88.2881897,13.3097725 88.2881897,13.5582911 L88.2881897,14.1264767 C89.2718642,13.0973292 90.5731733,12.7065138 91.8734897,12.7065138 C93.351483,12.7065138 94.5813243,13.1324024 95.5659914,13.9841798 C96.7610914,14.978254 97.217691,16.25592 97.217691,18.4925871 L97.217691,18.4925871 Z M105.199252,23.5321027 C103.898935,23.5321027 102.878534,22.8576955 102.351459,22.0770666 L102.351459,17.3211428 C102.878534,16.6116623 104.004152,15.8661066 105.199252,15.8661066 C107.449494,15.8661066 109.172661,17.2860696 109.172661,19.6991047 C109.172661,22.1131419 107.449494,23.5321027 105.199252,23.5321027 L105.199252,23.5321027 Z M105.76206,12.7065138 C103.442336,12.7065138 102.351459,14.1264767 102.351459,14.1264767 L102.351459,6.63684863 L98.9765924,6.63684863 L98.9765924,26.4081039 L101.824385,26.4081039 C102.105293,26.4081039 102.316718,26.1595853 102.316718,25.9110667 L102.316718,25.307808 C102.316718,25.307808 103.405609,26.7628441 105.726327,26.7628441 C109.559779,26.7628441 112.547529,23.7806213 112.547529,19.73518 C112.547529,15.6887365 109.559779,12.7065138 105.76206,12.7065138 L105.76206,12.7065138 Z M55.3435312,26.4081039 L58.7193909,26.4081039 L58.7193909,13.061254 L55.3435312,13.061254 L55.3435312,26.4081039 Z M49.8941135,22.1131419 C49.3670386,22.8937708 48.3118964,23.568178 47.0463212,23.568178 C44.7960789,23.568178 43.0729115,22.1482151 43.0729115,19.73518 C43.0729115,17.3211428 44.7960789,15.9011798 47.0463212,15.9011798 C48.2761625,15.9011798 49.4017799,16.6116623 49.8941135,17.357218 L49.8941135,22.1131419 Z M49.8941135,13.5582911 L49.8941135,14.1264767 C49.8941135,14.1264767 48.8042299,12.7065138 46.4835125,12.7065138 C42.6510531,12.7065138 39.6633031,15.6526613 39.6633031,19.73518 C39.6633031,23.7806213 42.6163118,26.7628441 46.4835125,26.7628441 C48.8389712,26.7628441 49.8941135,25.307808 49.8941135,25.307808 L49.8941135,25.9110667 C49.8941135,26.1946585 50.1045464,26.4081039 50.386447,26.4081039 L53.2342393,26.4081039 L53.2342393,13.061254 L50.386447,13.061254 C50.1045464,13.061254 49.8941135,13.3097725 49.8941135,13.5582911 L49.8941135,13.5582911 Z M59.3169409,8.9085889 C59.3169409,10.187257 58.2965399,11.2164045 57.0319574,11.2164045 C55.7653896,11.2164045 54.7459812,10.187257 54.7459812,8.9085889 C54.7459812,7.63092289 55.7306483,6.60177544 57.0319574,6.60177544 C58.3322738,6.63684863 59.3169409,7.66699816 59.3169409,8.9085889 L59.3169409,8.9085889 Z" id="Fill-1" fill="#FFFFFF" mask="url(#mask-3)"></path>
                    </g>
                </g>
                <g id="Rectangle">
                    <use fill="black" fill-opacity="1" filter="url(#filter-5)" xlink:href="#path-4"></use>
                    <use fill="#000000" fill-rule="evenodd" xlink:href="#path-4"></use>
                </g>
                <g id="Group-19" transform="translate(29.000000, 257.000000)">
                    <g id="Group-3">
                        <mask id="mask-7" fill="white">
                            <use xlink:href="#path-6"></use>
                        </mask>
                        <g id="Clip-2"></g>
                        <path d="M21.958553,9.22428294 L24.6464569,4.41877519 C25.4335824,3.01417749 24.9660644,1.21763014 23.6045968,0.406084802 C22.2435616,-0.404568728 20.5010733,0.0765617223 19.7152453,1.48205123 L17.0264764,6.28622127 C11.2977596,4.42278832 4.88441657,6.83334552 1.75667386,12.4227526 C-0.228439394,15.9694732 -0.476686673,20.0597509 0.737735552,23.6443734 L5.70181614,14.7735586 L5.70181614,14.7726668 C6.84271566,12.7348854 8.68467586,11.2767792 10.8881948,10.6667825 C13.0925788,10.0576776 15.3942722,10.3707022 17.3707357,11.5474429 C21.4495163,13.9776199 22.8516377,19.3779637 20.4971809,23.58596 C18.1414267,27.7944023 12.9074745,29.2418068 8.82869388,26.8116298 L11.6757528,21.7234189 C13.037653,22.5354101 14.7788438,22.0533878 15.5651043,20.6487901 C16.3509324,19.2437465 15.8847119,17.4476451 14.5228118,16.6360998 C13.1613441,15.8245544 11.4197208,16.3061308 10.6330278,17.7107285 L1.55167523,33.9411893 C0.765847178,35.346233 1.23206768,37.1418885 2.59396781,37.9534338 C3.95586795,38.7649792 5.69749128,38.2834028 6.48288685,36.8779133 L9.17252069,32.0737433 C14.900805,33.9371762 21.314148,31.5261731 24.4423232,25.9358743 C27.5704984,20.3469131 26.3872152,13.4108759 21.958553,9.22428294" id="Fill-1" fill="#FEFEFE" mask="url(#mask-7)"></path>
                    </g>
                    <path d="M38.3987982,19.2758585 C39.6321903,19.2758585 40.4178385,18.657687 40.4178385,17.1597561 C40.4178385,15.6426389 39.596136,15.0651797 38.3987982,15.0651797 L36.7000542,15.0651797 L36.7000542,19.2758585 L38.3987982,19.2758585 Z M34.1984733,12.6079365 L38.4700683,12.6079365 C40.9544605,12.6079365 42.9923664,13.9856025 42.9923664,17.1597561 C42.9923664,20.3343776 40.9368526,21.7326337 38.4700683,21.7326337 L36.7000542,21.7326337 L36.7000542,26.1857143 L34.1984733,26.1857143 L34.1984733,12.6079365 Z" id="Fill-4" fill="#FEFEFE"></path>
                    <polygon id="Fill-6" fill="#FEFEFE" points="47.8778626 12.6079365 56.4054896 12.6079365 56.4054896 15.0647964 50.5302996 15.0647964 50.5302996 18.1782229 55.7044853 18.1782229 55.7044853 20.5737783 50.5302996 20.5737783 50.5302996 23.7293224 56.6717557 23.7293224 56.6717557 26.1857143 47.8778626 26.1857143"></polygon>
                    <polygon id="Fill-8" fill="#FEFEFE" points="60.5801527 12.6079365 63.022466 12.6079365 63.022466 23.7293224 68.3969466 23.7293224 68.3969466 26.1857143 60.5801527 26.1857143"></polygon>
                    <path d="M82.2104054,19.3963695 C82.2104054,16.9267294 80.5777394,15.0397365 78.1688505,15.0397365 C75.7581385,15.0397365 74.1263841,16.9267294 74.1263841,19.3963695 C74.1263841,21.8669214 75.7581385,23.7543702 78.1688505,23.7543702 C80.5777394,23.7543702 82.2104054,21.8669214 82.2104054,19.3963695 M71.3282443,19.3963695 C71.3282443,15.4878916 74.3597523,12.6079365 78.1688505,12.6079365 C81.9770372,12.6079365 85.0076336,15.4878916 85.0076336,19.3963695 C85.0076336,23.3062151 81.9770372,26.1857143 78.1688505,26.1857143 C74.3597523,26.1857143 71.3282443,23.3062151 71.3282443,19.3963695" id="Fill-10" fill="#FEFEFE"></path>
                    <polygon id="Fill-12" fill="#FEFEFE" points="90.5518937 15.0647964 86.9618321 15.0647964 86.9618321 12.6079365 96.7328244 12.6079365 96.7328244 15.0647964 93.1431968 15.0647964 93.1431968 26.1857143 90.5518937 26.1857143"></polygon>
                    <path d="M110.545745,19.3963695 C110.545745,16.9267294 108.913296,15.0397365 106.504728,15.0397365 C104.094337,15.0397365 102.462345,16.9267294 102.462345,19.3963695 C102.462345,21.8669214 104.094337,23.7543702 106.504728,23.7543702 C108.913296,23.7543702 110.545745,21.8669214 110.545745,19.3963695 M99.6641221,19.3963695 C99.6641221,15.4878916 102.695226,12.6079365 106.504728,12.6079365 C110.312863,12.6079365 113.343511,15.4878916 113.343511,19.3963695 C113.343511,23.3062151 110.312863,26.1857143 106.504728,26.1857143 C102.695226,26.1857143 99.6641221,23.3062151 99.6641221,19.3963695" id="Fill-14" fill="#FEFEFE"></path>
                    <g id="Group-18" transform="translate(117.251908, 12.607937)">
                        <mask id="mask-9" fill="white">
                            <use xlink:href="#path-8"></use>
                        </mask>
                        <g id="Clip-17"></g>
                        <path d="M4.12305392,7.25795585 C3.50052446,6.64016696 2.63809759,5.46206844 2.63809759,5.46206844 C2.63809759,5.46206844 2.82210492,6.91036474 2.82210492,7.85628326 L2.82210492,13.361167 L0.420981252,13.361167 L0.420981252,0.113329185 L0.676355908,0.113329185 L6.96355957,6.33285659 C7.56889209,6.93027881 8.43002919,8.12648104 8.43002919,8.12648104 C8.43002919,8.12648104 8.26536843,6.64016696 8.26536843,5.733624 L8.26536843,0.229645481 L10.6660622,0.229645481 L10.6660622,13.4761255 L10.4111174,13.4761255 L4.12305392,7.25795585 Z" id="Fill-16" fill="#FEFEFE" mask="url(#mask-9)"></path>
                    </g>
                </g>
            </g>
        </g>
    </g>
</svg>