<?xml version="1.0" encoding="UTF-8"?>
<svg width="144px" height="54px" viewBox="0 0 144 54" version="1.1" xmlns="http://www.w3.org/2000/svg" xmlns:xlink="http://www.w3.org/1999/xlink">
    <!-- Generator: Sketch 62 (91390) - https://sketch.com -->
    <title>Group 19</title>
    <desc>Created with Sketch.</desc>
    <defs>
        <filter x="-4.1%" y="-3.1%" width="108.3%" height="106.2%" filterUnits="objectBoundingBox" id="filter-1">
            <feOffset dx="2" dy="4" in="SourceAlpha" result="shadowOffsetOuter1"></feOffset>
            <feGaussianBlur stdDeviation="4" in="shadowOffsetOuter1" result="shadowBlurOuter1"></feGaussianBlur>
            <feColorMatrix values="0 0 0 0 0   0 0 0 0 0   0 0 0 0 0  0 0 0 0.15 0" type="matrix" in="shadowBlurOuter1" result="shadowMatrixOuter1"></feColorMatrix>
            <feMerge>
                <feMergeNode in="shadowMatrixOuter1"></feMergeNode>
                <feMergeNode in="SourceGraphic"></feMergeNode>
            </feMerge>
        </filter>
        <polygon id="path-2" points="5.87359468e-05 0.0124853129 26.1992227 0.0124853129 26.1992227 38.347671 5.87359468e-05 38.347671"></polygon>
        <polygon id="path-4" points="0.420981252 0.113329185 10.6659762 0.113329185 10.6659762 13.4761255 0.420981252 13.4761255"></polygon>
    </defs>
    <g id="Page-1" stroke="none" stroke-width="1" fill="none" fill-rule="evenodd">
        <g id="DESKTOP-Copy-4" transform="translate(-217.000000, -1398.000000)">
            <g id="Group-20" filter="url(#filter-1)" transform="translate(194.000000, 1145.000000)">
                <rect id="Rectangle" fill="#000000" x="0" y="184" width="185" height="184"></rect>
                <g id="Group-19" transform="translate(29.000000, 257.000000)">
                    <g id="Group-3">
                        <mask id="mask-3" fill="white">
                            <use xlink:href="#path-2"></use>
                        </mask>
                        <g id="Clip-2"></g>
                        <path d="M21.958553,9.22428294 L24.6464569,4.41877519 C25.4335824,3.01417749 24.9660644,1.21763014 23.6045968,0.406084802 C22.2435616,-0.404568728 20.5010733,0.0765617223 19.7152453,1.48205123 L17.0264764,6.28622127 C11.2977596,4.42278832 4.88441657,6.83334552 1.75667386,12.4227526 C-0.228439394,15.9694732 -0.476686673,20.0597509 0.737735552,23.6443734 L5.70181614,14.7735586 L5.70181614,14.7726668 C6.84271566,12.7348854 8.68467586,11.2767792 10.8881948,10.6667825 C13.0925788,10.0576776 15.3942722,10.3707022 17.3707357,11.5474429 C21.4495163,13.9776199 22.8516377,19.3779637 20.4971809,23.58596 C18.1414267,27.7944023 12.9074745,29.2418068 8.82869388,26.8116298 L11.6757528,21.7234189 C13.037653,22.5354101 14.7788438,22.0533878 15.5651043,20.6487901 C16.3509324,19.2437465 15.8847119,17.4476451 14.5228118,16.6360998 C13.1613441,15.8245544 11.4197208,16.3061308 10.6330278,17.7107285 L1.55167523,33.9411893 C0.765847178,35.346233 1.23206768,37.1418885 2.59396781,37.9534338 C3.95586795,38.7649792 5.69749128,38.2834028 6.48288685,36.8779133 L9.17252069,32.0737433 C14.900805,33.9371762 21.314148,31.5261731 24.4423232,25.9358743 C27.5704984,20.3469131 26.3872152,13.4108759 21.958553,9.22428294" id="Fill-1" fill="#FEFEFE" mask="url(#mask-3)"></path>
                    </g>
                    <path d="M38.3987982,19.2758585 C39.6321903,19.2758585 40.4178385,18.657687 40.4178385,17.1597561 C40.4178385,15.6426389 39.596136,15.0651797 38.3987982,15.0651797 L36.7000542,15.0651797 L36.7000542,19.2758585 L38.3987982,19.2758585 Z M34.1984733,12.6079365 L38.4700683,12.6079365 C40.9544605,12.6079365 42.9923664,13.9856025 42.9923664,17.1597561 C42.9923664,20.3343776 40.9368526,21.7326337 38.4700683,21.7326337 L36.7000542,21.7326337 L36.7000542,26.1857143 L34.1984733,26.1857143 L34.1984733,12.6079365 Z" id="Fill-4" fill="#FEFEFE"></path>
                    <polygon id="Fill-6" fill="#FEFEFE" points="47.8778626 12.6079365 56.4054896 12.6079365 56.4054896 15.0647964 50.5302996 15.0647964 50.5302996 18.1782229 55.7044853 18.1782229 55.7044853 20.5737783 50.5302996 20.5737783 50.5302996 23.7293224 56.6717557 23.7293224 56.6717557 26.1857143 47.8778626 26.1857143"></polygon>
                    <polygon id="Fill-8" fill="#FEFEFE" points="60.5801527 12.6079365 63.022466 12.6079365 63.022466 23.7293224 68.3969466 23.7293224 68.3969466 26.1857143 60.5801527 26.1857143"></polygon>
                    <path d="M82.2104054,19.3963695 C82.2104054,16.9267294 80.5777394,15.0397365 78.1688505,15.0397365 C75.7581385,15.0397365 74.1263841,16.9267294 74.1263841,19.3963695 C74.1263841,21.8669214 75.7581385,23.7543702 78.1688505,23.7543702 C80.5777394,23.7543702 82.2104054,21.8669214 82.2104054,19.3963695 M71.3282443,19.3963695 C71.3282443,15.4878916 74.3597523,12.6079365 78.1688505,12.6079365 C81.9770372,12.6079365 85.0076336,15.4878916 85.0076336,19.3963695 C85.0076336,23.3062151 81.9770372,26.1857143 78.1688505,26.1857143 C74.3597523,26.1857143 71.3282443,23.3062151 71.3282443,19.3963695" id="Fill-10" fill="#FEFEFE"></path>
                    <polygon id="Fill-12" fill="#FEFEFE" points="90.5518937 15.0647964 86.9618321 15.0647964 86.9618321 12.6079365 96.7328244 12.6079365 96.7328244 15.0647964 93.1431968 15.0647964 93.1431968 26.1857143 90.5518937 26.1857143"></polygon>
                    <path d="M110.545745,19.3963695 C110.545745,16.9267294 108.913296,15.0397365 106.504728,15.0397365 C104.094337,15.0397365 102.462345,16.9267294 102.462345,19.3963695 C102.462345,21.8669214 104.094337,23.7543702 106.504728,23.7543702 C108.913296,23.7543702 110.545745,21.8669214 110.545745,19.3963695 M99.6641221,19.3963695 C99.6641221,15.4878916 102.695226,12.6079365 106.504728,12.6079365 C110.312863,12.6079365 113.343511,15.4878916 113.343511,19.3963695 C113.343511,23.3062151 110.312863,26.1857143 106.504728,26.1857143 C102.695226,26.1857143 99.6641221,23.3062151 99.6641221,19.3963695" id="Fill-14" fill="#FEFEFE"></path>
                    <g id="Group-18" transform="translate(117.251908, 12.607937)">
                        <mask id="mask-5" fill="white">
                            <use xlink:href="#path-4"></use>
                        </mask>
                        <g id="Clip-17"></g>
                        <path d="M4.12305392,7.25795585 C3.50052446,6.64016696 2.63809759,5.46206844 2.63809759,5.46206844 C2.63809759,5.46206844 2.82210492,6.91036474 2.82210492,7.85628326 L2.82210492,13.361167 L0.420981252,13.361167 L0.420981252,0.113329185 L0.676355908,0.113329185 L6.96355957,6.33285659 C7.56889209,6.93027881 8.43002919,8.12648104 8.43002919,8.12648104 C8.43002919,8.12648104 8.26536843,6.64016696 8.26536843,5.733624 L8.26536843,0.229645481 L10.6660622,0.229645481 L10.6660622,13.4761255 L10.4111174,13.4761255 L4.12305392,7.25795585 Z" id="Fill-16" fill="#FEFEFE" mask="url(#mask-5)"></path>
                    </g>
                </g>
            </g>
        </g>
    </g>
</svg>