<?xml version="1.0" encoding="UTF-8"?>
<svg width="133px" height="34px" viewBox="0 0 133 34" version="1.1" xmlns="http://www.w3.org/2000/svg" xmlns:xlink="http://www.w3.org/1999/xlink">
    <!-- Generator: Sketch 62 (91390) - https://sketch.com -->
    <title>Group 3</title>
    <desc>Created with Sketch.</desc>
    <defs>
        <filter x="-4.1%" y="-3.1%" width="108.3%" height="106.2%" filterUnits="objectBoundingBox" id="filter-1">
            <feOffset dx="2" dy="4" in="SourceAlpha" result="shadowOffsetOuter1"></feOffset>
            <feGaussianBlur stdDeviation="4" in="shadowOffsetOuter1" result="shadowBlurOuter1"></feGaussianBlur>
            <feColorMatrix values="0 0 0 0 0   0 0 0 0 0   0 0 0 0 0  0 0 0 0.15 0" type="matrix" in="shadowBlurOuter1" result="shadowMatrixOuter1"></feColorMatrix>
            <feMerge>
                <feMergeNode in="shadowMatrixOuter1"></feMergeNode>
                <feMergeNode in="SourceGraphic"></feMergeNode>
            </feMerge>
        </filter>
        <polygon id="path-2" points="0 0 117.460317 0 117.460317 18.1280788 0 18.1280788"></polygon>
    </defs>
    <g id="Page-1" stroke="none" stroke-width="1" fill="none" fill-rule="evenodd">
        <g id="DESKTOP-Copy-4" transform="translate(-439.000000, -1178.000000)">
            <g id="Group-20" filter="url(#filter-1)" transform="translate(225.000000, 732.000000)">
                <g id="Group-8" transform="translate(0.000000, 368.000000)">
                    <rect id="Rectangle" fill="#1428A0" x="185" y="0" width="185" height="184"></rect>
                    <g id="Group-3" transform="translate(219.259259, 82.212766)">
                        <mask id="mask-3" fill="white">
                            <use xlink:href="#path-2"></use>
                        </mask>
                        <g id="Clip-2"></g>
                        <path d="M111.534615,7.98176605 L111.534615,10.4507022 L113.252794,10.4507022 L113.252794,12.8993456 C113.261519,13.1252702 113.246082,13.3525476 113.205141,13.5757665 C112.882311,14.5301963 111.852076,15.0402176 110.905064,14.7135064 C110.374174,14.5308727 109.95671,14.1108154 109.776167,13.5757665 C109.741938,13.3518712 109.726501,13.1252702 109.729186,12.8993456 L109.729186,5.14756268 C109.723145,4.87970002 109.747307,4.61183736 109.803014,4.34938607 C110.093627,3.41524888 111.079566,2.89575766 112.006443,3.18864789 C112.555455,3.36181163 112.986342,3.79607382 113.158831,4.34938607 C113.193731,4.57328138 113.211182,4.79920594 113.212524,5.02580693 L113.212524,5.96603191 L117.399913,5.96603191 L117.399913,5.41136681 C117.42139,5.03730608 117.42139,4.66256893 117.399913,4.2885082 C117.085137,1.1160944 114.487063,0.108227336 111.51448,0.108227336 C108.541226,0.108227336 105.990134,1.12285861 105.620994,4.2885082 C105.620994,4.57936916 105.534414,5.10021322 105.534414,5.41136681 L105.534414,12.52055 C105.535085,12.8939343 105.557905,13.2659657 105.600859,13.6366444 C105.876036,16.7211234 108.533843,17.8169252 111.500386,17.8169252 C114.466928,17.8169252 117.124736,16.7211234 117.399913,13.6366444 C117.447565,13.0684508 117.453606,12.8317036 117.460317,12.52055 L117.460317,7.98853026 L111.534615,7.98176605 Z M82.3853149,0.541136681 L78.1368502,0.541136681 L78.1368502,13.0549224 C78.1496023,13.2815234 78.1355079,13.5081244 78.0972516,13.7313433 C77.8448941,14.6255716 76.9200309,15.1450629 76.0327528,14.8907286 C75.4756871,14.7310933 75.0407732,14.2920962 74.8823786,13.7313433 C74.8407665,13.5088008 74.8273432,13.2815234 74.8421088,13.0549224 L74.8421088,0.541136681 L70.6003557,0.541136681 L70.6003557,12.6693625 C70.6003557,12.9805161 70.6003557,13.6231159 70.6399544,13.785457 C70.9359374,16.9443423 73.4051478,17.972502 76.4931709,17.972502 C79.5805228,17.972502 82.0564448,16.9443423 82.3524279,13.785457 C82.3866573,13.4141019 82.398067,13.041394 82.3853149,12.6693625 L82.3853149,0.541136681 Z M43.3779657,0.541136681 L41.2570892,13.7651643 L39.1429243,0.541136681 L32.2963858,0.541136681 L31.9339575,17.451658 L36.1287292,17.451658 L36.2428269,1.79251526 L39.129501,17.451658 L43.3840062,17.451658 L46.2706802,1.79251526 L46.384778,17.451658 L50.5929729,17.451658 L50.2171214,0.541136681 L43.3779657,0.541136681 Z M18.020739,0.541136681 L14.9139233,17.451658 L19.4509883,17.451658 L21.7933488,1.79251526 L24.0820162,17.451658 L28.585523,17.451658 L25.4914594,0.541136681 L18.020739,0.541136681 Z M97.2186986,14.1642526 L93.2380281,0.541136681 L87.0103024,0.541136681 L87.0103024,17.2683479 L91.131246,17.2683479 L90.888956,3.21299904 L95.1582268,17.2683479 L101.131582,17.2683479 L101.131582,0.541136681 L96.9831202,0.541136681 L97.2186986,14.1642526 Z M59.1033256,4.94463642 C59.0469479,4.65648114 59.0469479,4.36020881 59.1033256,4.07205353 C59.2328602,3.34760679 59.901339,2.85179031 60.6261955,2.9424307 C61.4060875,2.87343578 62.0926877,3.45380487 62.1618175,4.23912948 C62.167858,4.31421219 62.1685291,4.3892949 62.1631598,4.46437762 L62.1631598,5.49930152 L66.3042384,5.49930152 L66.3042384,4.32232924 C66.3042384,0.676420851 63.0625189,0.101463128 60.7134468,0.101463128 C57.7542871,0.101463128 55.3448102,1.08227336 54.9018423,3.82854202 C54.764925,4.57463422 54.7783483,5.34034262 54.9421122,6.08102345 C55.6602571,9.50371296 61.5664955,10.4912874 62.4255848,12.6558341 C62.5383402,13.0610102 62.5383402,13.4891846 62.4255848,13.8936843 C62.2980637,14.4551136 61.9222122,15.0233071 60.8080808,15.0233071 C59.9953019,15.1274759 59.2523239,14.5491361 59.1482936,13.7299904 C59.1388973,13.656937 59.1355415,13.5818543 59.1368838,13.5081244 L59.1368838,11.8569811 L54.6803584,11.8569811 L54.6803584,13.1496214 C54.6803584,16.8902287 57.5864962,18.0198515 60.7208296,18.0198515 C63.7209302,18.0198515 66.1968522,16.9849276 66.5935098,14.1913095 C66.7451928,13.2849055 66.7451928,12.3588854 66.5935098,11.451805 C65.8753649,7.96147342 59.5798517,6.90625689 59.1033256,4.94463642 L59.1033256,4.94463642 Z M4.51088963,4.90405117 C4.44847143,4.61183736 4.44847143,4.31015367 4.51088963,4.01793986 C4.63773952,3.28402323 5.31427229,2.78076612 6.04785395,2.87478862 C6.83781335,2.80579369 7.53380986,3.39563267 7.60226853,4.19178002 C7.608309,4.26483347 7.60965133,4.3372105 7.60428202,4.41026395 L7.60428202,5.45871627 L11.7930132,5.45871627 L11.7930132,4.26821557 C11.7930132,0.588486141 8.49692943,0 6.12839357,0 C3.1484278,0 0.71143327,0.994338652 0.26175375,3.76089993 C0.113426625,4.51375634 0.113426625,5.28825822 0.26175375,6.0404382 C0.987281452,9.49694875 6.97338837,10.4980516 7.81972549,12.6896552 C7.94053492,13.0975369 7.94053492,13.5324756 7.81972549,13.9410337 C7.66065975,14.6999779 6.94251485,15.2012058 6.18208665,15.084185 C5.36125373,15.1849717 4.61491996,14.597162 4.51424544,13.7705757 C4.50484916,13.6941401 4.50149334,13.618381 4.50417799,13.5419454 L4.50417799,11.9117712 L0,11.9117712 L0,13.2098228 C0,16.9916918 2.9464076,18.1280788 6.10154703,18.1280788 C9.13520588,18.1280788 11.6252223,17.0863907 12.0279204,14.2521873 C12.1789322,13.3363135 12.1789322,12.4014999 12.0279204,11.4856261 C11.3567569,7.93441659 4.98741569,6.88596427 4.51088963,4.90405117 L4.51088963,4.90405117 Z" id="Fill-1" fill="#FFFFFF" mask="url(#mask-3)"></path>
                    </g>
                </g>
            </g>
        </g>
    </g>
</svg>