<?xml version="1.0" encoding="UTF-8"?>
<svg width="151px" height="40px" viewBox="0 0 151 40" version="1.1" xmlns="http://www.w3.org/2000/svg" xmlns:xlink="http://www.w3.org/1999/xlink">
    <!-- Generator: Sketch 62 (91390) - https://sketch.com -->
    <title>Group 18</title>
    <desc>Created with Sketch.</desc>
    <defs>
        <filter x="-4.1%" y="-3.1%" width="108.3%" height="106.2%" filterUnits="objectBoundingBox" id="filter-1">
            <feOffset dx="2" dy="4" in="SourceAlpha" result="shadowOffsetOuter1"></feOffset>
            <feGaussianBlur stdDeviation="4" in="shadowOffsetOuter1" result="shadowBlurOuter1"></feGaussianBlur>
            <feColorMatrix values="0 0 0 0 0   0 0 0 0 0   0 0 0 0 0  0 0 0 0.15 0" type="matrix" in="shadowBlurOuter1" result="shadowMatrixOuter1"></feColorMatrix>
            <feMerge>
                <feMergeNode in="shadowMatrixOuter1"></feMergeNode>
                <feMergeNode in="SourceGraphic"></feMergeNode>
            </feMerge>
        </filter>
        <polygon id="path-2" points="0.638935185 0.0482688588 17.208903 0.0482688588 17.208903 24.068999 0.638935185 24.068999"></polygon>
        <polygon id="path-4" points="0 0.714192263 33.5445644 0.714192263 33.5445644 16.3491296 0 16.3491296"></polygon>
        <polygon id="path-6" points="0.0524789562 0.42448307 38.7142263 0.42448307 38.7142263 16.3491296 0.0524789562 16.3491296"></polygon>
    </defs>
    <g id="Page-1" stroke="none" stroke-width="1" fill="none" fill-rule="evenodd">
        <g id="DESKTOP-Copy-4" transform="translate(-430.000000, -1360.000000)">
            <g id="Group-20" filter="url(#filter-1)" transform="translate(225.000000, 732.000000)">
                <g id="Group-8" transform="translate(0.000000, 368.000000)">
                    <rect id="Rectangle" fill="#000000" x="185" y="184" width="185" height="184"></rect>
                    <g id="Group-18" transform="translate(209.470899, 263.276596)">
                        <path d="M136.517698,21.7082186 C136.112816,23.0846596 134.736995,24.2983878 133.360396,24.5412892 C131.903598,24.7841905 130.28407,24.8651576 128.989226,24.2983878 C128.422391,24.2983878 128.098485,24.8651576 127.612626,24.7841905 L127.207744,24.2174207 L126.478956,21.303383 C126.478956,21.0604816 126.722664,20.8175803 126.884617,20.7366132 C127.936532,20.8175803 128.098485,21.9511199 128.908249,22.4369226 C129.960164,23.2465938 131.660669,23.4887166 132.874537,22.9227253 C133.604104,22.5178897 134.008207,21.8701528 134.008207,21.1414487 C133.522348,18.3083781 130.28407,17.3375513 128.422391,15.6372418 C127.288721,14.8283491 126.640909,13.6948095 126.640909,12.3993356 C126.722664,11.1856074 127.207744,9.97110058 128.341414,9.32336364 C129.879966,8.43350387 131.984575,8.67640522 133.604104,9.08124081 C134.17016,9.16220793 134.413089,8.51447099 134.979146,8.75737234 C135.384806,9.00027369 135.626957,10.942706 135.870665,12.0754671 C135.870665,12.3183685 135.545981,12.4803027 135.384806,12.4803027 C134.817193,12.3993356 134.332113,11.2665745 133.604104,10.7807718 C132.874537,10.3759362 132.226726,9.97110058 131.336763,10.0520677 C130.689731,10.1330348 130.122117,10.3759362 129.79899,10.942706 C129.556061,11.3475416 129.556061,11.8325658 129.637037,12.3183685 C130.931881,14.4235135 133.441372,15.3141518 135.222854,17.0946499 C136.436721,18.227411 136.841604,20.0079091 136.517698,21.7082186" id="Fill-1" fill="#FEFEFE"></path>
                        <path d="M122.83634,20.2515111 C122.513213,21.1421494 122.027355,22.1129763 121.21759,22.7607132 C120.164897,23.5703844 118.384194,23.5703844 117.170326,23.0028361 C116.522515,22.0320092 116.84642,20.6563467 116.764665,19.5228071 L116.764665,11.7522993 C116.764665,11.3474637 116.926618,10.861661 117.332279,10.6997268 C118.46517,10.0519898 120.002944,10.2948912 121.055638,10.9426281 C123.646105,13.2089289 123.565907,17.1755392 122.83634,20.2515111 M125.588761,12.3190691 C123.72786,8.75729449 119.517085,8.59536025 115.874703,9.08116296 C114.660057,9.32328578 113.365213,9.4042529 112.312519,10.132957 C111.664707,11.2664966 113.44541,10.7806939 113.527165,11.6713322 L113.607363,22.1939434 C113.527165,22.5178119 113.122283,22.7607132 112.717401,22.7607132 C112.393495,22.9226475 112.312519,23.1647703 112.312519,23.4886388 C112.636425,23.9744415 113.527165,24.2173428 113.607363,24.2173428 C116.926618,24.9460469 121.135835,25.4310711 123.970011,23.4084502 C127.127313,20.8182809 127.289266,15.718131 125.588761,12.3190691" id="Fill-3" fill="#FEFEFE"></path>
                        <path d="M68.516572,24.5410556 L68.0307134,24.8649241 L57.6688447,24.8649241 C57.344939,24.8649241 57.1829861,24.3791214 57.344939,24.0552529 C57.6688447,23.4884831 58.7207597,23.8940972 58.8017361,23.084426 L58.8017361,11.347308 C58.7207597,10.3764811 57.0210332,11.0234396 57.5068918,9.80971132 L57.911774,9.64777708 L67.7068077,9.64777708 C68.3546191,9.80971132 68.4355955,11.1044067 68.8404777,11.8331107 C68.8404777,12.0760121 68.6785248,12.2379463 68.516572,12.3189134 C67.7877841,12.3189134 67.4638784,11.2663409 66.8168455,11.0234396 C65.6831755,10.9424724 63.9024726,10.9424724 62.5258733,11.0234396 C61.716109,11.5902094 62.1209912,12.8039376 62.0407934,13.6945759 C62.1209912,14.2613457 61.7978641,15.0702384 62.5258733,15.3139183 L65.5212226,15.3941069 C65.7641519,15.3941069 65.9261048,15.7179753 66.0070812,15.8799096 C66.0880577,16.3664908 65.9261048,16.6895808 65.5212226,16.851515 L62.5258733,17.0134492 C61.8788405,17.4182848 62.0407934,18.227956 61.9598169,18.8749144 C61.9598169,20.1703883 61.9598169,21.707985 62.2019676,23.0026804 C62.9307555,23.8940972 66.5739162,23.4082945 66.897822,23.3265488 C67.949737,23.2463603 68.1116898,21.5460508 69.2453598,21.8699192 C69.4882891,22.1128206 69.4073127,22.5176562 69.3263363,22.7605575 L68.516572,24.5410556 Z" id="Fill-5" fill="#FEFEFE"></path>
                        <path d="M56.1305261,24.8649241 L48.440101,24.8649241 C48.1161953,24.783957 47.7113131,24.7029898 47.6303367,24.3791214 C47.4683838,23.8940972 47.9542424,23.6504173 48.2781481,23.5702287 C48.6020539,23.5702287 48.8449832,23.3265488 48.9259596,23.084426 L48.9259596,11.1044067 C48.7640067,10.295514 47.1444781,10.7805382 47.7113131,9.64777708 C47.9542424,9.32390861 49.8167003,9.48584284 51.2734975,9.48584284 C52.0832618,9.48584284 53.7020118,9.32390861 53.7020118,9.80971132 C53.7020118,10.1328013 53.5400589,10.4566697 53.2971296,10.5376368 C52.811271,10.5376368 52.3254125,10.6995711 52.1642382,11.1853738 C52.2452146,15.1512055 52.2452146,18.9558815 52.2452146,22.8415247 C52.4071675,23.4082945 53.1351768,23.2463603 53.6210354,23.3265488 C55.0778325,23.5702287 56.1305261,22.6795904 56.859314,21.6277964 C57.1022433,21.4658622 57.3451726,21.3841165 57.5071254,21.4658622 C57.992984,21.7889521 57.6690783,22.2747548 57.5881019,22.5986233 C57.1832197,23.3265488 57.1022433,24.5410556 56.1305261,24.8649241" id="Fill-7" fill="#FEFEFE"></path>
                        <g id="Group-11" transform="translate(31.144781, 0.730573)">
                            <mask id="mask-3" fill="white">
                                <use xlink:href="#path-2"></use>
                            </mask>
                            <g id="Clip-10"></g>
                            <path d="M13.0049705,23.4060368 C10.3335269,24.3776422 6.69036616,24.4586093 4.42380471,22.4344313 C1.67138468,19.9252292 1.26650253,15.635529 2.48037037,12.3166557 C3.29013468,9.80745358 6.04255471,8.59294681 8.06696549,7.46018569 C8.14794192,7.29825145 7.90501263,7.21728433 7.8240362,7.21728433 C6.12353114,7.46018569 4.9096633,5.59794197 3.29013468,6.81244874 C2.88525253,7.0553501 2.5613468,7.62211992 1.9952904,7.37921857 C1.67138468,7.0553501 1.83333754,6.56954739 1.9952904,6.24567892 C2.5613468,5.19310638 3.6140404,4.38421373 4.74771044,4.14131238 C6.69036616,3.73647679 8.14794192,4.86923791 9.76669192,5.51697485 C10.0096212,5.51697485 10.4947012,5.59794197 10.656654,5.35504062 C10.1715741,4.78904932 9.4427862,4.62711509 8.87595118,4.14131238 C7.50013047,2.92680561 5.63767256,2.03694584 3.8569697,2.76487137 C2.96622896,3.25067408 2.07626684,3.97937814 1.67138468,4.95020503 C1.42845539,5.11291779 1.10454966,5.19310638 0.86162037,5.11291779 C0.537714646,4.70808221 0.618691077,4.06034526 0.780643939,3.65550967 C1.34747896,2.36081431 2.23744108,0.660504836 3.77599327,0.336636364 C6.5284133,-0.71515764 8.71399832,1.30824178 10.5756776,3.16970696 C11.3044655,4.2222795 12.9239941,3.41260832 13.4908291,4.54614797 C13.7337584,5.11291779 13.4098527,5.67890909 13.0049705,6.08374468 C10.3335269,8.35082398 5.96157828,9.40261799 5.39552189,13.4501954 C4.99063973,16.6071344 5.07161616,20.4110319 7.98598906,22.2724971 C9.11888047,22.7582998 10.5756776,22.7582998 11.7093476,21.9494072 C14.2998148,19.763295 13.9766877,15.8784304 13.4098527,12.8024584 C13.085947,11.4260174 12.0332534,10.1313221 10.7376305,9.32165087 C10.5756776,8.9977824 10.8193855,8.59294681 11.1425126,8.4317911 C13.2478998,8.26985687 15.1905556,9.72648646 16.1622727,11.5879516 C17.6190699,14.3400551 17.6190699,18.5495667 15.7573906,21.139736 C15.1095791,22.1113414 14.0576641,23.0012012 13.0049705,23.4060368" id="Fill-9" fill="#FEFEFE" mask="url(#mask-3)"></path>
                        </g>
                        <g id="Group-14" transform="translate(0.000000, 8.515872)">
                            <mask id="mask-5" fill="white">
                                <use xlink:href="#path-4"></use>
                            </mask>
                            <g id="Clip-13"></g>
                            <path d="M0.51552399,0.727147002 L5.69645833,0.727147002 C5.93938763,0.80811412 6.02036406,1.13198259 5.93938763,1.37488395 C5.45352904,1.69875242 4.80649621,1.53681818 4.5627883,2.1837766 L4.72474116,3.07441489 C5.8584112,5.90748549 6.66817551,8.90249033 7.96301978,11.5736267 C8.04399621,11.7355609 8.20594907,11.7355609 8.28692551,11.5736267 C9.01571338,9.95506286 9.5825484,8.17378627 10.2303598,6.3932882 C10.068407,4.93588008 9.42059554,3.64118472 8.93473695,2.34571083 C8.69180766,1.53681818 7.31520833,1.94087524 7.63911406,0.970048356 L7.96301978,0.727147002 L12.9010248,0.727147002 C13.0629777,0.80811412 13.2257092,0.970048356 13.2257092,1.21294971 C13.1447327,1.94087524 12.253992,1.53681818 12.0110627,2.26474371 L12.0920391,3.07441489 C13.1447327,5.90748549 13.7917656,8.82152321 15.006412,11.4926596 C15.4112942,11.4926596 15.4112942,11.0068569 15.5724684,10.7639555 L17.9207849,2.91248066 C18.0827378,2.6695793 17.9207849,2.34571083 17.6778556,2.10280948 C17.2729735,1.77971954 16.2202799,1.86068665 16.5441856,1.05101547 L16.8680913,0.889081238 L24.3965636,0.889081238 C24.7204693,0.889081238 25.1253514,0.970048356 25.1253514,1.29391683 C25.1253514,2.1837766 23.910705,1.69875242 23.7495307,2.50764507 C23.7495307,3.72215184 23.7495307,5.09781431 23.8305072,6.31232108 L24.3155871,6.63541103 C25.61121,6.55444391 27.1497622,6.63541103 28.4446065,6.63541103 C29.0114415,6.63541103 28.7685122,3.96505319 28.8494886,2.58861219 C28.6875358,1.53681818 27.0687858,2.34571083 27.4728893,1.05101547 L27.796795,0.80811412 L33.2206587,0.80811412 C33.5445644,0.970048356 33.6255408,1.37488395 33.463588,1.69875242 C33.0587058,2.02184236 32.3299179,1.86068665 32.1687437,2.50764507 L32.1687437,14.7305658 C32.4108944,15.4584913 33.8684701,14.9726886 33.463588,16.1062282 L33.0587058,16.3491296 L27.9587479,16.2681625 C27.796795,16.2681625 27.5546444,16.1871954 27.4728893,15.944294 C27.3919129,14.8925 28.7685122,15.4584913 28.8494886,14.5686315 L28.8494886,8.65958897 L28.4446065,8.25475338 L24.0726578,8.25475338 L23.8305072,8.73977756 L23.8305072,14.7305658 C23.9916814,15.5394584 25.61121,14.9726886 25.044375,16.1062282 L24.6394928,16.3491296 L19.4585585,16.3491296 C19.1346528,16.1871954 19.0536763,15.7823598 19.1346528,15.5394584 C19.4585585,15.0544342 20.1873464,15.2965571 20.4302757,14.8107544 L20.5112521,13.5970261 L20.5112521,2.75054642 C20.5112521,2.58861219 20.4302757,2.42667795 20.2683228,2.34571083 C19.7824642,2.42667795 19.7824642,2.99344778 19.6205114,3.31731625 C18.3256671,7.36411509 17.0300442,11.4926596 15.7344213,15.6204255 C15.5724684,15.944294 15.3303178,16.1871954 15.006412,16.3491296 C14.6015299,16.3491296 14.1156713,16.3491296 13.7107891,15.7823598 C12.6588742,13.7589603 12.4159449,11.6545938 11.4442277,9.63119439 C11.4442277,9.63119439 11.2012984,9.2263588 11.0393455,9.46926015 C10.1493834,11.4926596 9.5825484,13.6779932 8.77278409,15.7013926 C8.44887837,16.2681625 7.80106692,16.3491296 7.31520833,16.2681625 C6.42524621,16.1871954 6.10134049,14.6488201 5.69645833,13.5970261 L4.96767045,11.6545938 L1.56821759,2.26474371 C1.3252883,1.37488395 -0.456193182,1.86068665 0.110641835,0.889081238 C0.272594697,0.646179884 0.353571128,0.727147002 0.51552399,0.727147002" id="Fill-12" fill="#FEFEFE" mask="url(#mask-5)"></path>
                        </g>
                        <g id="Group-17" transform="translate(73.968855, 8.515872)">
                            <mask id="mask-7" fill="white">
                                <use xlink:href="#path-6"></use>
                            </mask>
                            <g id="Clip-16"></g>
                            <path d="M35.1869066,10.4401649 C34.9439773,11.9785401 34.2953872,13.5161368 32.8385901,14.4067751 C31.8676515,14.9727664 30.3298779,14.8925779 29.3581608,14.325808 C26.5247643,12.220663 26.7676936,8.17386412 27.4957029,5.01692505 C27.8196086,3.96513104 28.6293729,2.66965716 29.7622643,2.18385445 C30.8959343,1.69805174 32.2725337,2.02192021 33.2434722,2.66965716 C35.4298359,4.53190087 35.5100337,7.60709429 35.1869066,10.4401649 M20.3721128,11.9785401 C20.0482071,12.8683999 19.4813721,13.9209724 18.5096549,14.4067751 C17.4577399,15.0545121 15.7580135,14.8925779 14.7862963,14.2448409 C12.0338763,11.897573 12.1958291,7.52612718 13.2477441,4.3691881 C13.6534049,3.39836122 14.543367,2.4267558 15.5960606,2.02192021 C16.8909049,1.69805174 18.2675042,2.02192021 19.1574663,2.99352563 C21.1818771,5.2598264 21.1818771,9.06450242 20.3721128,11.9785401 M37.5344444,3.88416393 C35.9958923,1.13128191 32.9195665,0.160455029 29.9242172,0.484323501 C27.33375,0.646257737 24.9052357,2.83159139 24.0144949,5.17885928 L23.8525421,5.17885928 C23.1245328,3.64126257 21.9098864,2.02192021 20.2911364,1.21224903 C17.4577399,-0.082446325 13.491452,0.160455029 11.1431355,2.50772292 L10.8192298,2.50772292 C10.4151263,1.94095309 10.4151263,1.0503148 9.68633838,0.807413443 C6.5290362,0.888380561 3.6146633,0.807413443 0.457361111,0.807413443 C0.0524789562,0.807413443 0.0524789562,1.21224903 0.0524789562,1.45515039 C0.214431818,1.85998598 0.538337542,1.85998598 0.862243266,1.85998598 C1.18614899,2.02192021 1.42907828,2.34578868 1.42907828,2.66965716 L1.42907828,14.8925779 C1.26712542,15.1347007 1.02419613,15.2966349 0.700290404,15.2966349 C0.457361111,15.3783806 0.0524789562,15.6205034 0.214431818,15.9443719 C0.295408249,16.1872732 0.457361111,16.2682403 0.619313973,16.3492074 L5.71927189,16.3492074 C6.04317761,16.2682403 6.44805976,16.1063061 6.36708333,15.6205034 C6.12415404,15.2164463 5.63829545,15.2966349 5.31516835,15.1347007 C4.82930976,14.9727664 4.74755471,14.4869637 4.74755471,14.0829067 L4.74755471,8.49773259 L4.99126263,8.17386412 C6.12415404,8.092897 8.06680976,8.41676547 8.47169192,7.68806141 C8.63364478,7.44516006 8.63364478,6.95935735 8.30973906,6.71723453 C7.33802189,6.31239894 5.96220118,6.55452176 4.82930976,6.47355464 L4.58560185,6.23143182 L4.58560185,2.91255851 C4.58560185,2.58869004 4.82930976,2.34578868 5.07146044,2.18385445 C6.2861069,2.02192021 7.74368266,2.10288733 8.87657407,2.34578868 C9.52438552,2.58869004 9.92926768,3.3173941 10.1714184,3.88416393 C9.68633838,4.77402369 9.44340909,5.74562911 9.28145623,6.71723453 C8.79559764,10.2782307 9.92926768,13.7590382 13.0857912,15.5395363 C15.7580135,16.7532645 19.6433249,16.6730759 21.8296886,14.648898 C22.8816035,13.7590382 23.2864857,12.5445314 24.0144949,11.5737045 C24.58133,12.4643428 24.9862121,13.4351697 25.7951978,14.2448409 C27.9013636,16.5111417 31.5437458,16.6730759 34.3771423,15.7824376 C35.4298359,15.2966349 36.4817508,14.648898 37.2105387,13.597104 C39.072218,11.0069347 39.2341709,6.63548888 37.5344444,3.88416393" id="Fill-15" fill="#FEFEFE" mask="url(#mask-7)"></path>
                        </g>
                    </g>
                </g>
            </g>
        </g>
    </g>
</svg>